<svg viewBox="0 0 3000 3000" xmlns="http://www.w3.org/2000/svg" xml:space="preserve" style="fill-rule:evenodd;clip-rule:evenodd;stroke-linecap:round;stroke-linejoin:round;stroke-miterlimit:1.5"><g transform="matrix(1.39445 0 0 1.18518 -935.753 124.395)"><path d="M1750.7 2173.17c-550.76-.64-837.276-165.47-942.746-236.1-48.827-32.7-55.758-89.41-55.758-111.8V855.891H2755.68v969.379c0 22.39-6.93 79.1-55.76 111.8-105.68 70.77-393.11 236.1-945.98 236.1h-3.24Z" style="fill:#7b3718"/><clipPath id="a"><path d="M1750.7 2173.17c-550.76-.64-837.276-165.47-942.746-236.1-48.827-32.7-55.758-89.41-55.758-111.8V855.891H2755.68v969.379c0 22.39-6.93 79.1-55.76 111.8-105.68 70.77-393.11 236.1-945.98 236.1h-3.24Z"/></clipPath><g clip-path="url(#a)"><path d="M817.106 1105.37c128.662 228.88 433.664 399.16 1060.584 399.16 626.91 0 911.51-170.28 1040.17-399.16l-35.6-357.337c-96.5 171.659-534.39 355.417-1004.57 355.417-470.19 0-948.889-206.568-1045.385-378.227l-15.199 380.147Z" style="fill:#aa765e" transform="matrix(1.30425 0 0 1.17657 -681.732 105.86)"/><path d="M817.106 1105.37c128.662 228.88 433.664 399.16 1060.584 399.16 626.91 0 911.51-170.28 1040.17-399.16l-35.6-106.427c-96.5 171.657-534.39 355.417-1004.57 355.417-470.19 0-948.889-206.57-1045.385-378.227l-15.199 129.237Z" style="fill:#db9f84" transform="matrix(1.30425 0 0 1.17657 -681.732 -41.747)"/></g><path d="M1750.7 2173.17c-550.76-.64-837.276-165.47-942.746-236.1-48.827-32.7-55.758-89.41-55.758-111.8V855.891H2755.68v969.379c0 22.39-6.93 79.1-55.76 111.8-105.68 70.77-393.11 236.1-945.98 236.1h-3.24Z" style="fill:none;stroke:#7b3718;stroke-width:19.32px"/></g><path d="M2100.74 405.392c552.87 0 1037.24 87.89 1041.02 260.656 19.5 891.632-111.77 109.053-180.1 136.751-137.06 55.56-29.17 1268.841-152.23 842.401-66.23-229.53-43.3-1067.313-195.8-651.982-104.97 285.882-189.97-17.338-512.89-59.393-589.19-76.732-332.6 546.065-399.97 585.455-42.8 25.03-133.25-502.75-103.71 0 5.43 92.32 8.38 260.9-19.08 275.95-85.85 47.06-15.96-475.43-104.28-888.566-16.25-76.012-80.67 507.086-223.51-92.324-34.88-146.361-199.03 736.26-187.86-148.292 2.52-199.719 485.53-260.656 1038.41-260.656Z" style="fill:#381c0b;stroke:#381c0b;stroke-width:20.72px" transform="matrix(1.39445 0 0 .98342 -1419.46 497.371)"/><path d="M1008.81 78.832s-61.232 40.092 29.1 73.36c31.28 11.52 56.12 65.664 81.9 111.358 65.79 116.618-23.54 151.11-139.846 154.266-193.624 5.253-176.433-72.337-155.868-155.869C867.37 86.166 1008.81 78.832 1008.81 78.832Z" style="fill:#fff9e8;stroke:#fee0c6;stroke-width:15.68px;stroke-linejoin:miter" transform="matrix(.79727 0 0 .79727 1310.301 671.66)"/><path d="M1008.81 78.832s-44.111 59.758 29.1 73.36c64.26 11.938 141.92 105.624 13.69 161.345-244.234 106.131-271.059 9.59-228.352-65.087C908.195 99.916 1008.81 78.832 1008.81 78.832Z" style="fill:#fff9e8;stroke:#fee0c6;stroke-width:14.84px;stroke-linejoin:miter" transform="matrix(.8848 0 0 .79727 1229.3 671.66)"/><path d="M1028.85 67.612s-45.929 50.419 12.27 84.58c36.5 21.428 30.96 46.979 5.47 70.245-61.134 55.808-231.846 99.501-222.494 39.51C853.747 71.742 1028.85 67.612 1028.85 67.612Z" style="fill:#fff9e8;stroke:#fee0c6;stroke-width:15.68px;stroke-linejoin:miter" transform="matrix(.79727 0 0 .79727 1310.301 671.66)"/><path d="M951.873 94.533s-4.295 24.391 86.037 57.659c31.28 11.52 88.1 66.929 104.24 116.846 32.65 100.918-11.74 160.019-174.314 161.133-181.451 1.243-203.004-105.867-143.74-168.224 126.533-133.136 172.7-144.405 127.777-167.414Z" style="fill:#fff9e8;stroke:#fee0c6;stroke-width:15.08px;stroke-linejoin:miter" transform="matrix(.82884 0 0 .82884 667.827 640.048)"/><path d="M949.242 94.533s15.457 44.057 88.668 57.659c64.26 11.938 141.92 105.624 13.69 161.345-244.234 106.131-250.624-49.724-228.352-65.087C957.883 155.584 949.242 94.533 949.242 94.533Z" style="fill:#fff9e8;stroke:#fee0c6;stroke-width:14.28px;stroke-linejoin:miter" transform="matrix(.91985 0 0 .82884 583.617 640.048)"/><path d="M948.762 40.34s59.778 67.246 109.798 102.78c34.83 24.741 13.52 56.051-11.97 79.317-61.134 55.808-247.681 53.872-208.538 7.459C897.05 159.94 900.106 87.291 948.762 40.34Z" style="fill:#fff9e8;stroke:#fee0c6;stroke-width:15.08px;stroke-linejoin:miter" transform="matrix(.82884 0 0 .82884 667.827 640.048)"/><path d="M1151.87 134.058s-11.73 0-11.73 73.886c0 3.126 5.26 5.663 11.73 5.663 6.47 0 11.72-2.537 11.72-5.663 0-73.886-11.72-73.886-11.72-73.886Z" style="fill:#ff6200" transform="matrix(.53598 0 0 1.10935 698.95 315.99)"/><path d="M1029.28 115.716c0-40.464-83.376-62.007-83.376-21.543v347.219c0 28.505 83.376 30.326 83.376 2.535V115.716Z" style="fill:#8a00ff" transform="matrix(.68384 0 0 1.10935 640.976 436.796)"/><path d="M1018.3 124.308c-30.422-11.63-52.053-41.109-52.053-75.601 0-53.495 80.903-178.318 80.903-178.318s80.9 124.823 80.9 178.318c0 34.492-21.63 63.971-52.05 75.601.41-1.953.62-3.978.62-6.052 0-16.265-13.2-29.47-29.47-29.47s-29.47 13.205-29.47 29.47c0 2.074.21 4.099.62 6.052Z" style="fill:#fffdc6" transform="matrix(.764 0 0 1.2394 516.299 310.64)"/><path d="M1017.92 122.02c-18.389-10.274-30.833-29.931-30.833-52.473 0-39.715 60.063-132.385 60.063-132.385s60.06 92.67 60.06 132.385c0 22.542-12.44 42.199-30.83 52.473.16-1.233.24-2.489.24-3.764 0-16.265-13.2-29.47-29.47-29.47s-29.47 13.205-29.47 29.47c0 1.275.08 2.531.24 3.764Z" style="fill:#fffa5d" transform="matrix(.764 0 0 1.2394 516.299 310.64)"/><path d="M1017.69 117.408c-7.55-7.547-12.23-17.974-12.23-29.484 0-27.565 41.69-91.882 41.69-91.882s41.69 64.317 41.69 91.882c0 11.51-4.68 21.937-12.23 29.484-.45-15.874-13.48-28.622-29.46-28.622s-29.01 12.748-29.46 28.622Z" style="fill:#fc0" transform="matrix(.764 0 0 1.2394 516.299 310.64)"/><g transform="matrix(-.02957 .27202 -.25455 -.02767 1645.114 570.893)"><path d="M1509.55 1136.24c-97.09-49.97-568.881 357.28-559.092 695.86 8.096 280 264.092 363.04 394.152 380.24 260.6 34.44 498.34-239.55 455.03-516.33-31.09-198.63-136.14-480.53-290.09-559.77Z" style="fill:#f30009"/><clipPath id="b"><path d="M1509.55 1136.24c-97.09-49.97-568.881 357.28-559.092 695.86 8.096 280 264.092 363.04 394.152 380.24 260.6 34.44 498.34-239.55 455.03-516.33-31.09-198.63-136.14-480.53-290.09-559.77Z"/></clipPath><g clip-path="url(#b)"><path d="M1260.96 1064.89s-33.57 57.54-33.57 82.2c0 18.97 15.04 34.38 33.57 34.38s33.57-15.41 33.57-34.38c0-24.66-33.57-82.2-33.57-82.2Z" style="fill:#ffb200" transform="matrix(-.71716 -.11892 .13494 -.74389 2323.4 2978.39)"/><path d="M1260.96 1064.89s-33.57 57.54-33.57 82.2c0 18.97 15.04 34.38 33.57 34.38s33.57-15.41 33.57-34.38c0-24.66-33.57-82.2-33.57-82.2Z" style="fill:#ffb200" transform="matrix(-.71716 -.11892 .13494 -.74389 2211.55 2945.92)"/><path d="M1260.96 1064.89s-33.57 57.54-33.57 82.2c0 18.97 15.04 34.38 33.57 34.38s33.57-15.41 33.57-34.38c0-24.66-33.57-82.2-33.57-82.2Z" style="fill:#ffb200" transform="matrix(-.71716 -.11892 .13494 -.74389 2048.9 2889.54)"/><path d="M1260.96 1064.89s-33.57 57.54-33.57 82.2c0 18.97 15.04 34.38 33.57 34.38s33.57-15.41 33.57-34.38c0-24.66-33.57-82.2-33.57-82.2Z" style="fill:#ffb200" transform="matrix(-.71716 -.11892 .13494 -.74389 1890.57 2864.39)"/><path d="M1260.96 1064.89s-33.57 57.54-33.57 82.2c0 18.97 15.04 34.38 33.57 34.38s33.57-15.41 33.57-34.38c0-24.66-33.57-82.2-33.57-82.2Z" style="fill:#ffb200" transform="matrix(-.71716 -.11892 .13494 -.74389 1770.67 2867.01)"/><path d="M1260.96 1064.89s-33.57 57.54-33.57 82.2c0 18.97 15.04 34.38 33.57 34.38s33.57-15.41 33.57-34.38c0-24.66-33.57-82.2-33.57-82.2Z" style="fill:#ffb200" transform="matrix(-.71716 -.11892 .13494 -.74389 1919.95 2994.25)"/><path d="M1260.96 1064.89s-33.57 57.54-33.57 82.2c0 18.97 15.04 34.38 33.57 34.38s33.57-15.41 33.57-34.38c0-24.66-33.57-82.2-33.57-82.2Z" style="fill:#ffb200" transform="matrix(-.71716 -.11892 .13494 -.74389 1945.12 2717.82)"/><path d="M1260.96 1064.89s-33.57 57.54-33.57 82.2c0 18.97 15.04 34.38 33.57 34.38s33.57-15.41 33.57-34.38c0-24.66-33.57-82.2-33.57-82.2Z" style="fill:#ffb200" transform="matrix(-.71716 -.11892 .13494 -.74389 1816.34 2681.66)"/><path d="M1260.96 1064.89s-33.57 57.54-33.57 82.2c0 18.97 15.04 34.38 33.57 34.38s33.57-15.41 33.57-34.38c0-24.66-33.57-82.2-33.57-82.2Z" style="fill:#ffb200" transform="matrix(-.71716 -.11892 .13494 -.74389 2083.91 2744.66)"/><path d="M1260.96 1064.89s-33.57 57.54-33.57 82.2c0 18.97 15.04 34.38 33.57 34.38s33.57-15.41 33.57-34.38c0-24.66-33.57-82.2-33.57-82.2Z" style="fill:#ffb200" transform="matrix(-.71716 -.11892 .13494 -.74389 2221.66 2788.41)"/><path d="M1260.96 1064.89s-33.57 57.54-33.57 82.2c0 18.97 15.04 34.38 33.57 34.38s33.57-15.41 33.57-34.38c0-24.66-33.57-82.2-33.57-82.2Z" style="fill:#ffb200" transform="matrix(-.71716 -.11892 .13494 -.74389 2363.06 2795.25)"/><path d="M1260.96 1064.89s-33.57 58.07-33.57 82.96c0 18.56 15.04 33.62 33.57 33.62s33.57-15.06 33.57-33.62c0-24.89-33.57-82.96-33.57-82.96Z" style="fill:#ffb200" transform="matrix(-.65435 -.31479 .32302 -.68441 2199.54 2949.6)"/><path d="M1260.96 1064.89s-33.57 57.25-33.57 81.79c0 19.2 15.04 34.79 33.57 34.79s33.57-15.59 33.57-34.79c0-24.54-33.57-81.79-33.57-81.79Z" style="fill:#ffb200" transform="matrix(-.72974 .02295 -.0022 -.75299 2658.3 2410.89)"/><path d="M1260.96 1064.89s-33.57 57.91-33.57 82.73c0 18.68 15.04 33.85 33.57 33.85s33.57-15.17 33.57-33.85c0-24.82-33.57-82.73-33.57-82.73Z" style="fill:#ffb200" transform="matrix(-.6778 -.25979 .27037 -.70712 2141.59 2783.3)"/><path d="M1260.96 1064.89s-33.57 57.5-33.57 82.15c0 19 15.04 34.43 33.57 34.43s33.57-15.43 33.57-34.43c0-24.65-33.57-82.15-33.57-82.15Z" style="fill:#ffb200" transform="matrix(-.7196 -.10475 .12128 -.74602 2208.08 2588.96)"/><path d="M1260.96 1064.89s-33.57 57.5-33.57 82.15c0 19 15.04 34.43 33.57 34.43s33.57-15.43 33.57-34.43c0-24.65-33.57-82.15-33.57-82.15Z" style="fill:#ffb200" transform="matrix(-.7196 -.10475 .12128 -.74602 2152.7 2419.28)"/><path d="M1260.96 1064.89s-33.57 57.5-33.57 82.15c0 19 15.04 34.43 33.57 34.43s33.57-15.43 33.57-34.43c0-24.65-33.57-82.15-33.57-82.15Z" style="fill:#ffb200" transform="matrix(-.7196 -.10475 .12128 -.74602 2019.79 2554.71)"/><path d="M1260.96 1064.89s-33.57 57.5-33.57 82.15c0 19 15.04 34.43 33.57 34.43s33.57-15.43 33.57-34.43c0-24.65-33.57-82.15-33.57-82.15Z" style="fill:#ffb200" transform="matrix(-.7196 -.10475 .12128 -.74602 1909.87 2450.56)"/><path d="M1260.96 1064.89s-33.57 57.5-33.57 82.15c0 19 15.04 34.43 33.57 34.43s33.57-15.43 33.57-34.43c0-24.65-33.57-82.15-33.57-82.15Z" style="fill:#ffb200" transform="matrix(-.7196 -.10475 .12128 -.74602 2436.47 2484.23)"/><path d="M1260.96 1064.89s-33.57 57.5-33.57 82.15c0 19 15.04 34.43 33.57 34.43s33.57-15.43 33.57-34.43c0-24.65-33.57-82.15-33.57-82.15Z" style="fill:#ffb200" transform="matrix(-.7196 -.10475 .12128 -.74602 2423.58 2318.31)"/><path d="M1260.96 1064.89s-33.57 57.5-33.57 82.15c0 19 15.04 34.43 33.57 34.43s33.57-15.43 33.57-34.43c0-24.65-33.57-82.15-33.57-82.15Z" style="fill:#ffb200" transform="matrix(-.7196 -.10475 .12128 -.74602 2301.44 2448.6)"/><path d="M1260.96 1064.89s-33.57 57.5-33.57 82.15c0 19 15.04 34.43 33.57 34.43s33.57-15.43 33.57-34.43c0-24.65-33.57-82.15-33.57-82.15Z" style="fill:#ffb200" transform="matrix(-.7196 -.10475 .12128 -.74602 1900.58 2555.64)"/><path d="M1260.96 1064.89s-33.57 57.5-33.57 82.15c0 19 15.04 34.43 33.57 34.43s33.57-15.43 33.57-34.43c0-24.65-33.57-82.15-33.57-82.15Z" style="fill:#ffb200" transform="matrix(-.7196 -.10475 .12128 -.74602 2087.92 2305.76)"/><path d="M1260.96 1064.89s-33.57 57.5-33.57 82.15c0 19 15.04 34.43 33.57 34.43s33.57-15.43 33.57-34.43c0-24.65-33.57-82.15-33.57-82.15Z" style="fill:#ffb200" transform="matrix(-.7196 -.10475 .12128 -.74602 2319.17 2297.93)"/><path d="M1260.96 1064.89s-33.57 57.5-33.57 82.15c0 19 15.04 34.43 33.57 34.43s33.57-15.43 33.57-34.43c0-24.65-33.57-82.15-33.57-82.15Z" style="fill:#ffb200" transform="matrix(-.7196 -.10475 .12128 -.74602 2245.38 2189.08)"/><path d="M1260.96 1064.89s-33.57 58.07-33.57 82.96c0 18.56 15.04 33.62 33.57 33.62s33.57-15.06 33.57-33.62c0-24.89-33.57-82.96-33.57-82.96Z" style="fill:#ffb200" transform="matrix(-.65435 -.31479 .32302 -.68441 2166.43 3142.27)"/></g></g><path d="M1223.05 647.749s-327.426 76.201-303.675 295.35c7.008 64.661 179.325 96.591 117.855 117.851-45.233 15.65 89.46-399.531 185.82-413.201Z" style="fill:#038f00" transform="matrix(-.18558 .06575 -.0651 -.1876 1291.734 1003.194)"/><path d="M1871.74 837.698s-150.86 15.388-221.86-37.616c-80.6-60.167-109.75 36.82-103.51 86.549 6.24 49.728 54.26 62.929 101.92 79.626 49.47 17.333 210.3-112.168 223.45-128.559Zm-446.96-258.396c-17.21 29.459 142.46 133.63 129.04 234.375-4.55 34.116-66.71 20.438-103.99-9.43s-8.33-60.708-31.1-98.803c-56.59-94.636 6.05-126.142 6.05-126.142Z" style="fill:#038f00" transform="rotate(-103.024 983.408 284.364) scale(.25605)"/><path d="M979.123 625.327s42.427 199.064-59.748 317.772c-42.432 49.298 52.808 117.851 117.855 117.851 65.04 0 92.18-58.09 117.85-117.851C1218 796.615 979.123 625.327 979.123 625.327Z" style="fill:#038f00" transform="matrix(.18097 .07888 -.07728 .18235 947.72 608.906)"/><path d="M889.388 740.364s48.067 53.797 29.987 202.735c-7.839 64.571 52.808 117.851 117.855 117.851 65.04 0 116.23-52.83 117.85-117.851 5.45-219.229-265.692-202.735-265.692-202.735Z" style="fill:#038f00" transform="matrix(.01023 -.14296 -.19627 -.01525 1241.2 1046.507)"/><path d="M1008.81 78.832s-61.232 40.092 29.1 73.36c31.28 11.52 56.12 65.664 81.9 111.358 65.79 116.618-23.54 151.11-139.846 154.266-193.624 5.253-176.433-72.337-155.868-155.869C867.37 86.166 1008.81 78.832 1008.81 78.832Z" style="fill:#fff9e8;stroke:#fee0c6;stroke-width:16.23px;stroke-linejoin:miter" transform="matrix(-.77037 0 0 .77037 1653.08 674.372)"/><path d="M1008.81 78.832s-44.111 59.758 29.1 73.36c64.26 11.938 93.26 160.178-39.753 199.725-219.086 65.135-217.616-28.79-174.909-103.467C908.195 99.916 1008.81 78.832 1008.81 78.832Z" style="fill:#fff9e8;stroke:#fee0c6;stroke-width:15.36px;stroke-linejoin:miter" transform="matrix(-.85496 0 0 .77037 1731.35 674.372)"/><path d="M1028.85 67.612s-45.929 50.419 12.27 84.58c36.5 21.428 30.96 46.979 5.47 70.245-61.134 55.808-225.74 55.47-216.388-4.521C859.853 27.711 1028.85 67.612 1028.85 67.612Z" style="fill:#fff9e8;stroke:#fee0c6;stroke-width:16.23px;stroke-linejoin:miter" transform="matrix(-.77037 0 0 .77037 1653.08 674.372)"/><g transform="matrix(-.19437 -.16613 .15546 -.18189 323.113 1522.372)"><path d="M1509.55 1136.24c-97.09-49.97-568.881 357.28-559.092 695.86 8.096 280 264.092 363.04 394.152 380.24 260.6 34.44 498.34-239.55 455.03-516.33-31.09-198.63-136.14-480.53-290.09-559.77Z" style="fill:#f30009"/><clipPath id="c"><path d="M1509.55 1136.24c-97.09-49.97-568.881 357.28-559.092 695.86 8.096 280 264.092 363.04 394.152 380.24 260.6 34.44 498.34-239.55 455.03-516.33-31.09-198.63-136.14-480.53-290.09-559.77Z"/></clipPath><g clip-path="url(#c)"><path d="M1260.96 1064.89s-33.57 57.54-33.57 82.2c0 18.97 15.04 34.38 33.57 34.38s33.57-15.41 33.57-34.38c0-24.66-33.57-82.2-33.57-82.2Z" style="fill:#ffb200" transform="matrix(-.71716 -.11892 .13494 -.74389 2323.4 2978.39)"/><path d="M1260.96 1064.89s-33.57 57.54-33.57 82.2c0 18.97 15.04 34.38 33.57 34.38s33.57-15.41 33.57-34.38c0-24.66-33.57-82.2-33.57-82.2Z" style="fill:#ffb200" transform="matrix(-.71716 -.11892 .13494 -.74389 2211.55 2945.92)"/><path d="M1260.96 1064.89s-33.57 57.54-33.57 82.2c0 18.97 15.04 34.38 33.57 34.38s33.57-15.41 33.57-34.38c0-24.66-33.57-82.2-33.57-82.2Z" style="fill:#ffb200" transform="matrix(-.71716 -.11892 .13494 -.74389 2048.9 2889.54)"/><path d="M1260.96 1064.89s-33.57 57.54-33.57 82.2c0 18.97 15.04 34.38 33.57 34.38s33.57-15.41 33.57-34.38c0-24.66-33.57-82.2-33.57-82.2Z" style="fill:#ffb200" transform="matrix(-.71716 -.11892 .13494 -.74389 1890.57 2864.39)"/><path d="M1260.96 1064.89s-33.57 57.54-33.57 82.2c0 18.97 15.04 34.38 33.57 34.38s33.57-15.41 33.57-34.38c0-24.66-33.57-82.2-33.57-82.2Z" style="fill:#ffb200" transform="matrix(-.71716 -.11892 .13494 -.74389 1770.67 2867.01)"/><path d="M1260.96 1064.89s-33.57 57.54-33.57 82.2c0 18.97 15.04 34.38 33.57 34.38s33.57-15.41 33.57-34.38c0-24.66-33.57-82.2-33.57-82.2Z" style="fill:#ffb200" transform="matrix(-.71716 -.11892 .13494 -.74389 1919.95 2994.25)"/><path d="M1260.96 1064.89s-33.57 57.54-33.57 82.2c0 18.97 15.04 34.38 33.57 34.38s33.57-15.41 33.57-34.38c0-24.66-33.57-82.2-33.57-82.2Z" style="fill:#ffb200" transform="matrix(-.71716 -.11892 .13494 -.74389 1945.12 2717.82)"/><path d="M1260.96 1064.89s-33.57 57.54-33.57 82.2c0 18.97 15.04 34.38 33.57 34.38s33.57-15.41 33.57-34.38c0-24.66-33.57-82.2-33.57-82.2Z" style="fill:#ffb200" transform="matrix(-.71716 -.11892 .13494 -.74389 1816.34 2681.66)"/><path d="M1260.96 1064.89s-33.57 57.54-33.57 82.2c0 18.97 15.04 34.38 33.57 34.38s33.57-15.41 33.57-34.38c0-24.66-33.57-82.2-33.57-82.2Z" style="fill:#ffb200" transform="matrix(-.71716 -.11892 .13494 -.74389 2083.91 2744.66)"/><path d="M1260.96 1064.89s-33.57 57.54-33.57 82.2c0 18.97 15.04 34.38 33.57 34.38s33.57-15.41 33.57-34.38c0-24.66-33.57-82.2-33.57-82.2Z" style="fill:#ffb200" transform="matrix(-.71716 -.11892 .13494 -.74389 2221.66 2788.41)"/><path d="M1260.96 1064.89s-33.57 57.54-33.57 82.2c0 18.97 15.04 34.38 33.57 34.38s33.57-15.41 33.57-34.38c0-24.66-33.57-82.2-33.57-82.2Z" style="fill:#ffb200" transform="matrix(-.71716 -.11892 .13494 -.74389 2363.06 2795.25)"/><path d="M1260.96 1064.89s-33.57 58.07-33.57 82.96c0 18.56 15.04 33.62 33.57 33.62s33.57-15.06 33.57-33.62c0-24.89-33.57-82.96-33.57-82.96Z" style="fill:#ffb200" transform="matrix(-.65435 -.31479 .32302 -.68441 2199.54 2949.6)"/><path d="M1260.96 1064.89s-33.57 57.25-33.57 81.79c0 19.2 15.04 34.79 33.57 34.79s33.57-15.59 33.57-34.79c0-24.54-33.57-81.79-33.57-81.79Z" style="fill:#ffb200" transform="matrix(-.72974 .02295 -.0022 -.75299 2658.3 2410.89)"/><path d="M1260.96 1064.89s-33.57 57.91-33.57 82.73c0 18.68 15.04 33.85 33.57 33.85s33.57-15.17 33.57-33.85c0-24.82-33.57-82.73-33.57-82.73Z" style="fill:#ffb200" transform="matrix(-.6778 -.25979 .27037 -.70712 2141.59 2783.3)"/><path d="M1260.96 1064.89s-33.57 57.5-33.57 82.15c0 19 15.04 34.43 33.57 34.43s33.57-15.43 33.57-34.43c0-24.65-33.57-82.15-33.57-82.15Z" style="fill:#ffb200" transform="matrix(-.7196 -.10475 .12128 -.74602 2208.08 2588.96)"/><path d="M1260.96 1064.89s-33.57 57.5-33.57 82.15c0 19 15.04 34.43 33.57 34.43s33.57-15.43 33.57-34.43c0-24.65-33.57-82.15-33.57-82.15Z" style="fill:#ffb200" transform="matrix(-.7196 -.10475 .12128 -.74602 2152.7 2419.28)"/><path d="M1260.96 1064.89s-33.57 57.5-33.57 82.15c0 19 15.04 34.43 33.57 34.43s33.57-15.43 33.57-34.43c0-24.65-33.57-82.15-33.57-82.15Z" style="fill:#ffb200" transform="matrix(-.7196 -.10475 .12128 -.74602 2019.79 2554.71)"/><path d="M1260.96 1064.89s-33.57 57.5-33.57 82.15c0 19 15.04 34.43 33.57 34.43s33.57-15.43 33.57-34.43c0-24.65-33.57-82.15-33.57-82.15Z" style="fill:#ffb200" transform="matrix(-.7196 -.10475 .12128 -.74602 1909.87 2450.56)"/><path d="M1260.96 1064.89s-33.57 57.5-33.57 82.15c0 19 15.04 34.43 33.57 34.43s33.57-15.43 33.57-34.43c0-24.65-33.57-82.15-33.57-82.15Z" style="fill:#ffb200" transform="matrix(-.7196 -.10475 .12128 -.74602 2436.47 2484.23)"/><path d="M1260.96 1064.89s-33.57 57.5-33.57 82.15c0 19 15.04 34.43 33.57 34.43s33.57-15.43 33.57-34.43c0-24.65-33.57-82.15-33.57-82.15Z" style="fill:#ffb200" transform="matrix(-.7196 -.10475 .12128 -.74602 2423.58 2318.31)"/><path d="M1260.96 1064.89s-33.57 57.5-33.57 82.15c0 19 15.04 34.43 33.57 34.43s33.57-15.43 33.57-34.43c0-24.65-33.57-82.15-33.57-82.15Z" style="fill:#ffb200" transform="matrix(-.7196 -.10475 .12128 -.74602 2301.44 2448.6)"/><path d="M1260.96 1064.89s-33.57 57.5-33.57 82.15c0 19 15.04 34.43 33.57 34.43s33.57-15.43 33.57-34.43c0-24.65-33.57-82.15-33.57-82.15Z" style="fill:#ffb200" transform="matrix(-.7196 -.10475 .12128 -.74602 1900.58 2555.64)"/><path d="M1260.96 1064.89s-33.57 57.5-33.57 82.15c0 19 15.04 34.43 33.57 34.43s33.57-15.43 33.57-34.43c0-24.65-33.57-82.15-33.57-82.15Z" style="fill:#ffb200" transform="matrix(-.7196 -.10475 .12128 -.74602 2087.92 2305.76)"/><path d="M1260.96 1064.89s-33.57 57.5-33.57 82.15c0 19 15.04 34.43 33.57 34.43s33.57-15.43 33.57-34.43c0-24.65-33.57-82.15-33.57-82.15Z" style="fill:#ffb200" transform="matrix(-.7196 -.10475 .12128 -.74602 2319.17 2297.93)"/><path d="M1260.96 1064.89s-33.57 57.5-33.57 82.15c0 19 15.04 34.43 33.57 34.43s33.57-15.43 33.57-34.43c0-24.65-33.57-82.15-33.57-82.15Z" style="fill:#ffb200" transform="matrix(-.7196 -.10475 .12128 -.74602 2245.38 2189.08)"/><path d="M1260.96 1064.89s-33.57 58.07-33.57 82.96c0 18.56 15.04 33.62 33.57 33.62s33.57-15.06 33.57-33.62c0-24.89-33.57-82.96-33.57-82.96Z" style="fill:#ffb200" transform="matrix(-.65435 -.31479 .32302 -.68441 2166.43 3142.27)"/></g></g><path d="M1223.05 647.749s-327.426 76.201-303.675 295.35c7.008 64.661 179.325 96.591 117.855 117.851-45.233 15.65 89.46-399.531 185.82-413.201Z" style="fill:#038f00" transform="matrix(.04702 -.17788 .17909 .04858 175.62 1021.884)"/><path d="M1871.74 837.698s-150.86 15.388-221.86-37.616c-80.6-60.167-109.75 36.82-103.51 86.549 6.24 49.728 54.26 62.929 101.92 79.626 49.47 17.333 210.3-112.168 223.45-128.559Zm-446.96-258.396c-17.21 29.459 142.46 133.63 129.04 234.375-4.55 34.116-66.71 20.438-103.99-9.43s-8.33-60.708-31.1-98.803c-56.59-94.636 6.05-126.142 6.05-126.142Z" style="fill:#038f00" transform="rotate(21.292 -1479.713 644.737) scale(.23927)"/><path d="M979.123 625.327s42.427 199.064-59.748 317.772c-42.432 49.298 52.808 117.851 117.855 117.851 65.04 0 92.18-58.09 117.85-117.851C1218 796.615 979.123 625.327 979.123 625.327Z" style="fill:#038f00" transform="matrix(-.15622 .09812 -.10003 -.15571 661.171 964.083)"/><path d="M889.388 740.364s48.067 53.797 29.987 202.735c-7.839 64.571 52.808 117.851 117.855 117.851 65.04 0 116.23-52.83 117.85-117.851 5.45-219.229-265.692-202.735-265.692-202.735Z" style="fill:#038f00" transform="matrix(.10495 .08321 .11517 -.14345 168.812 960.062)"/><g transform="matrix(-.21535 -.18406 .17223 -.20151 635.7 1526.455)"><path d="M1509.55 1136.24c-97.09-49.97-568.881 357.28-559.092 695.86 8.096 280 264.092 363.04 394.152 380.24 260.6 34.44 498.34-239.55 455.03-516.33-31.09-198.63-136.14-480.53-290.09-559.77Z" style="fill:#f30009"/><clipPath id="d"><path d="M1509.55 1136.24c-97.09-49.97-568.881 357.28-559.092 695.86 8.096 280 264.092 363.04 394.152 380.24 260.6 34.44 498.34-239.55 455.03-516.33-31.09-198.63-136.14-480.53-290.09-559.77Z"/></clipPath><g clip-path="url(#d)"><path d="M1260.96 1064.89s-33.57 57.54-33.57 82.2c0 18.97 15.04 34.38 33.57 34.38s33.57-15.41 33.57-34.38c0-24.66-33.57-82.2-33.57-82.2Z" style="fill:#ffb200" transform="matrix(-.71716 -.11892 .13494 -.74389 2323.4 2978.39)"/><path d="M1260.96 1064.89s-33.57 57.54-33.57 82.2c0 18.97 15.04 34.38 33.57 34.38s33.57-15.41 33.57-34.38c0-24.66-33.57-82.2-33.57-82.2Z" style="fill:#ffb200" transform="matrix(-.71716 -.11892 .13494 -.74389 2211.55 2945.92)"/><path d="M1260.96 1064.89s-33.57 57.54-33.57 82.2c0 18.97 15.04 34.38 33.57 34.38s33.57-15.41 33.57-34.38c0-24.66-33.57-82.2-33.57-82.2Z" style="fill:#ffb200" transform="matrix(-.71716 -.11892 .13494 -.74389 2048.9 2889.54)"/><path d="M1260.96 1064.89s-33.57 57.54-33.57 82.2c0 18.97 15.04 34.38 33.57 34.38s33.57-15.41 33.57-34.38c0-24.66-33.57-82.2-33.57-82.2Z" style="fill:#ffb200" transform="matrix(-.71716 -.11892 .13494 -.74389 1890.57 2864.39)"/><path d="M1260.96 1064.89s-33.57 57.54-33.57 82.2c0 18.97 15.04 34.38 33.57 34.38s33.57-15.41 33.57-34.38c0-24.66-33.57-82.2-33.57-82.2Z" style="fill:#ffb200" transform="matrix(-.71716 -.11892 .13494 -.74389 1770.67 2867.01)"/><path d="M1260.96 1064.89s-33.57 57.54-33.57 82.2c0 18.97 15.04 34.38 33.57 34.38s33.57-15.41 33.57-34.38c0-24.66-33.57-82.2-33.57-82.2Z" style="fill:#ffb200" transform="matrix(-.71716 -.11892 .13494 -.74389 1919.95 2994.25)"/><path d="M1260.96 1064.89s-33.57 57.54-33.57 82.2c0 18.97 15.04 34.38 33.57 34.38s33.57-15.41 33.57-34.38c0-24.66-33.57-82.2-33.57-82.2Z" style="fill:#ffb200" transform="matrix(-.71716 -.11892 .13494 -.74389 1945.12 2717.82)"/><path d="M1260.96 1064.89s-33.57 57.54-33.57 82.2c0 18.97 15.04 34.38 33.57 34.38s33.57-15.41 33.57-34.38c0-24.66-33.57-82.2-33.57-82.2Z" style="fill:#ffb200" transform="matrix(-.71716 -.11892 .13494 -.74389 1816.34 2681.66)"/><path d="M1260.96 1064.89s-33.57 57.54-33.57 82.2c0 18.97 15.04 34.38 33.57 34.38s33.57-15.41 33.57-34.38c0-24.66-33.57-82.2-33.57-82.2Z" style="fill:#ffb200" transform="matrix(-.71716 -.11892 .13494 -.74389 2083.91 2744.66)"/><path d="M1260.96 1064.89s-33.57 57.54-33.57 82.2c0 18.97 15.04 34.38 33.57 34.38s33.57-15.41 33.57-34.38c0-24.66-33.57-82.2-33.57-82.2Z" style="fill:#ffb200" transform="matrix(-.71716 -.11892 .13494 -.74389 2221.66 2788.41)"/><path d="M1260.96 1064.89s-33.57 57.54-33.57 82.2c0 18.97 15.04 34.38 33.57 34.38s33.57-15.41 33.57-34.38c0-24.66-33.57-82.2-33.57-82.2Z" style="fill:#ffb200" transform="matrix(-.71716 -.11892 .13494 -.74389 2363.06 2795.25)"/><path d="M1260.96 1064.89s-33.57 58.07-33.57 82.96c0 18.56 15.04 33.62 33.57 33.62s33.57-15.06 33.57-33.62c0-24.89-33.57-82.96-33.57-82.96Z" style="fill:#ffb200" transform="matrix(-.65435 -.31479 .32302 -.68441 2199.54 2949.6)"/><path d="M1260.96 1064.89s-33.57 57.25-33.57 81.79c0 19.2 15.04 34.79 33.57 34.79s33.57-15.59 33.57-34.79c0-24.54-33.57-81.79-33.57-81.79Z" style="fill:#ffb200" transform="matrix(-.72974 .02295 -.0022 -.75299 2658.3 2410.89)"/><path d="M1260.96 1064.89s-33.57 57.91-33.57 82.73c0 18.68 15.04 33.85 33.57 33.85s33.57-15.17 33.57-33.85c0-24.82-33.57-82.73-33.57-82.73Z" style="fill:#ffb200" transform="matrix(-.6778 -.25979 .27037 -.70712 2141.59 2783.3)"/><path d="M1260.96 1064.89s-33.57 57.5-33.57 82.15c0 19 15.04 34.43 33.57 34.43s33.57-15.43 33.57-34.43c0-24.65-33.57-82.15-33.57-82.15Z" style="fill:#ffb200" transform="matrix(-.7196 -.10475 .12128 -.74602 2208.08 2588.96)"/><path d="M1260.96 1064.89s-33.57 57.5-33.57 82.15c0 19 15.04 34.43 33.57 34.43s33.57-15.43 33.57-34.43c0-24.65-33.57-82.15-33.57-82.15Z" style="fill:#ffb200" transform="matrix(-.7196 -.10475 .12128 -.74602 2152.7 2419.28)"/><path d="M1260.96 1064.89s-33.57 57.5-33.57 82.15c0 19 15.04 34.43 33.57 34.43s33.57-15.43 33.57-34.43c0-24.65-33.57-82.15-33.57-82.15Z" style="fill:#ffb200" transform="matrix(-.7196 -.10475 .12128 -.74602 2019.79 2554.71)"/><path d="M1260.96 1064.89s-33.57 57.5-33.57 82.15c0 19 15.04 34.43 33.57 34.43s33.57-15.43 33.57-34.43c0-24.65-33.57-82.15-33.57-82.15Z" style="fill:#ffb200" transform="matrix(-.7196 -.10475 .12128 -.74602 1909.87 2450.56)"/><path d="M1260.96 1064.89s-33.57 57.5-33.57 82.15c0 19 15.04 34.43 33.57 34.43s33.57-15.43 33.57-34.43c0-24.65-33.57-82.15-33.57-82.15Z" style="fill:#ffb200" transform="matrix(-.7196 -.10475 .12128 -.74602 2436.47 2484.23)"/><path d="M1260.96 1064.89s-33.57 57.5-33.57 82.15c0 19 15.04 34.43 33.57 34.43s33.57-15.43 33.57-34.43c0-24.65-33.57-82.15-33.57-82.15Z" style="fill:#ffb200" transform="matrix(-.7196 -.10475 .12128 -.74602 2423.58 2318.31)"/><path d="M1260.96 1064.89s-33.57 57.5-33.57 82.15c0 19 15.04 34.43 33.57 34.43s33.57-15.43 33.57-34.43c0-24.65-33.57-82.15-33.57-82.15Z" style="fill:#ffb200" transform="matrix(-.7196 -.10475 .12128 -.74602 2301.44 2448.6)"/><path d="M1260.96 1064.89s-33.57 57.5-33.57 82.15c0 19 15.04 34.43 33.57 34.43s33.57-15.43 33.57-34.43c0-24.65-33.57-82.15-33.57-82.15Z" style="fill:#ffb200" transform="matrix(-.7196 -.10475 .12128 -.74602 1900.58 2555.64)"/><path d="M1260.96 1064.89s-33.57 57.5-33.57 82.15c0 19 15.04 34.43 33.57 34.43s33.57-15.43 33.57-34.43c0-24.65-33.57-82.15-33.57-82.15Z" style="fill:#ffb200" transform="matrix(-.7196 -.10475 .12128 -.74602 2087.92 2305.76)"/><path d="M1260.96 1064.89s-33.57 57.5-33.57 82.15c0 19 15.04 34.43 33.57 34.43s33.57-15.43 33.57-34.43c0-24.65-33.57-82.15-33.57-82.15Z" style="fill:#ffb200" transform="matrix(-.7196 -.10475 .12128 -.74602 2319.17 2297.93)"/><path d="M1260.96 1064.89s-33.57 57.5-33.57 82.15c0 19 15.04 34.43 33.57 34.43s33.57-15.43 33.57-34.43c0-24.65-33.57-82.15-33.57-82.15Z" style="fill:#ffb200" transform="matrix(-.7196 -.10475 .12128 -.74602 2245.38 2189.08)"/><path d="M1260.96 1064.89s-33.57 58.07-33.57 82.96c0 18.56 15.04 33.62 33.57 33.62s33.57-15.06 33.57-33.62c0-24.89-33.57-82.96-33.57-82.96Z" style="fill:#ffb200" transform="matrix(-.65435 -.31479 .32302 -.68441 2166.43 3142.27)"/></g></g><path d="M1223.05 647.749s-327.426 76.201-303.675 295.35c7.008 64.661 179.325 96.591 117.855 117.851-45.233 15.65 89.46-399.531 185.82-413.201Z" style="fill:#038f00" transform="matrix(.0521 -.19707 .19841 .05382 472.292 971.963)"/><path d="M1871.74 837.698s-150.86 15.388-221.86-37.616c-80.6-60.167-109.75 36.82-103.51 86.549 6.24 49.728 54.26 62.929 101.92 79.626 49.47 17.333 210.3-112.168 223.45-128.559Zm-446.96-258.396c-17.21 29.459 142.46 133.63 129.04 234.375-4.55 34.116-66.71 20.438-103.99-9.43s-8.33-60.708-31.1-98.803c-56.59-94.636 6.05-126.142 6.05-126.142Z" style="fill:#038f00" transform="matrix(.247 .09626 -.09626 .247 425.199 483.862)"/><path d="M979.123 625.327s42.427 199.064-59.748 317.772c-42.432 49.298 52.808 117.851 117.855 117.851 65.04 0 92.18-58.09 117.85-117.851C1218 796.615 979.123 625.327 979.123 625.327Z" style="fill:#038f00" transform="matrix(-.17308 .1087 -.11082 -.17251 1010.234 907.926)"/><path d="M889.388 740.364s48.067 53.797 29.987 202.735c-7.839 64.571 52.808 117.851 117.855 117.851 65.04 0 116.23-52.83 117.85-117.851 5.45-219.229-265.692-202.735-265.692-202.735Z" style="fill:#038f00" transform="matrix(.11627 .0922 .1276 -.15893 464.75 903.471)"/><path d="M1151.87 134.058s-11.73 0-11.73 73.886c0 3.126 5.26 5.663 11.73 5.663 6.47 0 11.72-2.537 11.72-5.663 0-73.886-11.72-73.886-11.72-73.886Z" style="fill:#ff6200" transform="matrix(.53598 0 0 1.10935 1324.5 332.283)"/><path d="M1029.28 115.716c0-40.464-83.376-62.007-83.376-21.543v347.219c0 28.505 83.376 30.326 83.376 2.535V115.716Z" style="fill:#5bff00" transform="matrix(.68384 0 0 1.10935 1266.52 453.089)"/><g><path d="M1018.3 124.308c-30.422-11.63-52.053-41.109-52.053-75.601 0-53.495 80.903-178.318 80.903-178.318s80.9 124.823 80.9 178.318c0 34.492-21.63 63.971-52.05 75.601.41-1.953.62-3.978.62-6.052 0-16.265-13.2-29.47-29.47-29.47s-29.47 13.205-29.47 29.47c0 2.074.21 4.099.62 6.052Z" style="fill:#fffdc6" transform="matrix(.764 0 0 1.2394 1141.85 326.933)"/><path d="M1017.92 122.02c-18.389-10.274-30.833-29.931-30.833-52.473 0-39.715 60.063-132.385 60.063-132.385s60.06 92.67 60.06 132.385c0 22.542-12.44 42.199-30.83 52.473.16-1.233.24-2.489.24-3.764 0-16.265-13.2-29.47-29.47-29.47s-29.47 13.205-29.47 29.47c0 1.275.08 2.531.24 3.764Z" style="fill:#fffa5d" transform="matrix(.764 0 0 1.2394 1141.85 326.933)"/><path d="M1017.69 117.408c-7.55-7.547-12.23-17.974-12.23-29.484 0-27.565 41.69-91.882 41.69-91.882s41.69 64.317 41.69 91.882c0 11.51-4.68 21.937-12.23 29.484-.45-15.874-13.48-28.622-29.46-28.622s-29.01 12.748-29.46 28.622Z" style="fill:#fc0" transform="matrix(.764 0 0 1.2394 1141.85 326.933)"/></g><g><g transform="matrix(.19566 -.16723 -.15649 -.1831 1793.05 1456.775)"><path d="M1509.55 1136.24c-97.09-49.97-568.881 357.28-559.092 695.86 8.096 280 264.092 363.04 394.152 380.24 260.6 34.44 498.34-239.55 455.03-516.33-31.09-198.63-136.14-480.53-290.09-559.77Z" style="fill:#f30009"/><clipPath id="e"><path d="M1509.55 1136.24c-97.09-49.97-568.881 357.28-559.092 695.86 8.096 280 264.092 363.04 394.152 380.24 260.6 34.44 498.34-239.55 455.03-516.33-31.09-198.63-136.14-480.53-290.09-559.77Z"/></clipPath><g clip-path="url(#e)"><path d="M1260.96 1064.89s-33.57 57.54-33.57 82.2c0 18.97 15.04 34.38 33.57 34.38s33.57-15.41 33.57-34.38c0-24.66-33.57-82.2-33.57-82.2Z" style="fill:#ffb200" transform="matrix(-.71716 -.11892 .13494 -.74389 2323.4 2978.39)"/><path d="M1260.96 1064.89s-33.57 57.54-33.57 82.2c0 18.97 15.04 34.38 33.57 34.38s33.57-15.41 33.57-34.38c0-24.66-33.57-82.2-33.57-82.2Z" style="fill:#ffb200" transform="matrix(-.71716 -.11892 .13494 -.74389 2211.55 2945.92)"/><path d="M1260.96 1064.89s-33.57 57.54-33.57 82.2c0 18.97 15.04 34.38 33.57 34.38s33.57-15.41 33.57-34.38c0-24.66-33.57-82.2-33.57-82.2Z" style="fill:#ffb200" transform="matrix(-.71716 -.11892 .13494 -.74389 2048.9 2889.54)"/><path d="M1260.96 1064.89s-33.57 57.54-33.57 82.2c0 18.97 15.04 34.38 33.57 34.38s33.57-15.41 33.57-34.38c0-24.66-33.57-82.2-33.57-82.2Z" style="fill:#ffb200" transform="matrix(-.71716 -.11892 .13494 -.74389 1890.57 2864.39)"/><path d="M1260.96 1064.89s-33.57 57.54-33.57 82.2c0 18.97 15.04 34.38 33.57 34.38s33.57-15.41 33.57-34.38c0-24.66-33.57-82.2-33.57-82.2Z" style="fill:#ffb200" transform="matrix(-.71716 -.11892 .13494 -.74389 1770.67 2867.01)"/><path d="M1260.96 1064.89s-33.57 57.54-33.57 82.2c0 18.97 15.04 34.38 33.57 34.38s33.57-15.41 33.57-34.38c0-24.66-33.57-82.2-33.57-82.2Z" style="fill:#ffb200" transform="matrix(-.71716 -.11892 .13494 -.74389 1919.95 2994.25)"/><path d="M1260.96 1064.89s-33.57 57.54-33.57 82.2c0 18.97 15.04 34.38 33.57 34.38s33.57-15.41 33.57-34.38c0-24.66-33.57-82.2-33.57-82.2Z" style="fill:#ffb200" transform="matrix(-.71716 -.11892 .13494 -.74389 1945.12 2717.82)"/><path d="M1260.96 1064.89s-33.57 57.54-33.57 82.2c0 18.97 15.04 34.38 33.57 34.38s33.57-15.41 33.57-34.38c0-24.66-33.57-82.2-33.57-82.2Z" style="fill:#ffb200" transform="matrix(-.71716 -.11892 .13494 -.74389 1816.34 2681.66)"/><path d="M1260.96 1064.89s-33.57 57.54-33.57 82.2c0 18.97 15.04 34.38 33.57 34.38s33.57-15.41 33.57-34.38c0-24.66-33.57-82.2-33.57-82.2Z" style="fill:#ffb200" transform="matrix(-.71716 -.11892 .13494 -.74389 2083.91 2744.66)"/><path d="M1260.96 1064.89s-33.57 57.54-33.57 82.2c0 18.97 15.04 34.38 33.57 34.38s33.57-15.41 33.57-34.38c0-24.66-33.57-82.2-33.57-82.2Z" style="fill:#ffb200" transform="matrix(-.71716 -.11892 .13494 -.74389 2221.66 2788.41)"/><path d="M1260.96 1064.89s-33.57 57.54-33.57 82.2c0 18.97 15.04 34.38 33.57 34.38s33.57-15.41 33.57-34.38c0-24.66-33.57-82.2-33.57-82.2Z" style="fill:#ffb200" transform="matrix(-.71716 -.11892 .13494 -.74389 2363.06 2795.25)"/><path d="M1260.96 1064.89s-33.57 58.07-33.57 82.96c0 18.56 15.04 33.62 33.57 33.62s33.57-15.06 33.57-33.62c0-24.89-33.57-82.96-33.57-82.96Z" style="fill:#ffb200" transform="matrix(-.65435 -.31479 .32302 -.68441 2199.54 2949.6)"/><path d="M1260.96 1064.89s-33.57 57.25-33.57 81.79c0 19.2 15.04 34.79 33.57 34.79s33.57-15.59 33.57-34.79c0-24.54-33.57-81.79-33.57-81.79Z" style="fill:#ffb200" transform="matrix(-.72974 .02295 -.0022 -.75299 2658.3 2410.89)"/><path d="M1260.96 1064.89s-33.57 57.91-33.57 82.73c0 18.68 15.04 33.85 33.57 33.85s33.57-15.17 33.57-33.85c0-24.82-33.57-82.73-33.57-82.73Z" style="fill:#ffb200" transform="matrix(-.6778 -.25979 .27037 -.70712 2141.59 2783.3)"/><path d="M1260.96 1064.89s-33.57 57.5-33.57 82.15c0 19 15.04 34.43 33.57 34.43s33.57-15.43 33.57-34.43c0-24.65-33.57-82.15-33.57-82.15Z" style="fill:#ffb200" transform="matrix(-.7196 -.10475 .12128 -.74602 2208.08 2588.96)"/><path d="M1260.96 1064.89s-33.57 57.5-33.57 82.15c0 19 15.04 34.43 33.57 34.43s33.57-15.43 33.57-34.43c0-24.65-33.57-82.15-33.57-82.15Z" style="fill:#ffb200" transform="matrix(-.7196 -.10475 .12128 -.74602 2152.7 2419.28)"/><path d="M1260.96 1064.89s-33.57 57.5-33.57 82.15c0 19 15.04 34.43 33.57 34.43s33.57-15.43 33.57-34.43c0-24.65-33.57-82.15-33.57-82.15Z" style="fill:#ffb200" transform="matrix(-.7196 -.10475 .12128 -.74602 2019.79 2554.71)"/><path d="M1260.96 1064.89s-33.57 57.5-33.57 82.15c0 19 15.04 34.43 33.57 34.43s33.57-15.43 33.57-34.43c0-24.65-33.57-82.15-33.57-82.15Z" style="fill:#ffb200" transform="matrix(-.7196 -.10475 .12128 -.74602 1909.87 2450.56)"/><path d="M1260.96 1064.89s-33.57 57.5-33.57 82.15c0 19 15.04 34.43 33.57 34.43s33.57-15.43 33.57-34.43c0-24.65-33.57-82.15-33.57-82.15Z" style="fill:#ffb200" transform="matrix(-.7196 -.10475 .12128 -.74602 2436.47 2484.23)"/><path d="M1260.96 1064.89s-33.57 57.5-33.57 82.15c0 19 15.04 34.43 33.57 34.43s33.57-15.43 33.57-34.43c0-24.65-33.57-82.15-33.57-82.15Z" style="fill:#ffb200" transform="matrix(-.7196 -.10475 .12128 -.74602 2423.58 2318.31)"/><path d="M1260.96 1064.89s-33.57 57.5-33.57 82.15c0 19 15.04 34.43 33.57 34.43s33.57-15.43 33.57-34.43c0-24.65-33.57-82.15-33.57-82.15Z" style="fill:#ffb200" transform="matrix(-.7196 -.10475 .12128 -.74602 2301.44 2448.6)"/><path d="M1260.96 1064.89s-33.57 57.5-33.57 82.15c0 19 15.04 34.43 33.57 34.43s33.57-15.43 33.57-34.43c0-24.65-33.57-82.15-33.57-82.15Z" style="fill:#ffb200" transform="matrix(-.7196 -.10475 .12128 -.74602 1900.58 2555.64)"/><path d="M1260.96 1064.89s-33.57 57.5-33.57 82.15c0 19 15.04 34.43 33.57 34.43s33.57-15.43 33.57-34.43c0-24.65-33.57-82.15-33.57-82.15Z" style="fill:#ffb200" transform="matrix(-.7196 -.10475 .12128 -.74602 2087.92 2305.76)"/><path d="M1260.96 1064.89s-33.57 57.5-33.57 82.15c0 19 15.04 34.43 33.57 34.43s33.57-15.43 33.57-34.43c0-24.65-33.57-82.15-33.57-82.15Z" style="fill:#ffb200" transform="matrix(-.7196 -.10475 .12128 -.74602 2319.17 2297.93)"/><path d="M1260.96 1064.89s-33.57 57.5-33.57 82.15c0 19 15.04 34.43 33.57 34.43s33.57-15.43 33.57-34.43c0-24.65-33.57-82.15-33.57-82.15Z" style="fill:#ffb200" transform="matrix(-.7196 -.10475 .12128 -.74602 2245.38 2189.08)"/><path d="M1260.96 1064.89s-33.57 58.07-33.57 82.96c0 18.56 15.04 33.62 33.57 33.62s33.57-15.06 33.57-33.62c0-24.89-33.57-82.96-33.57-82.96Z" style="fill:#ffb200" transform="matrix(-.65435 -.31479 .32302 -.68441 2166.43 3142.27)"/></g></g><path d="M1871.74 837.698s-150.86 15.388-221.86-37.616c-80.6-60.167-109.75 36.82-103.51 86.549 6.24 49.728 54.26 62.929 101.92 79.626 49.47 17.333 210.3-112.168 223.45-128.559Zm-446.96-258.396c-17.21 29.459 142.46 133.63 129.04 234.375-4.55 34.116-66.71 20.438-103.99-9.43s-8.33-60.708-31.1-98.803c-56.59-94.636 6.05-126.142 6.05-126.142Z" style="fill:#038f00" transform="matrix(-.22442 .08746 .08746 .22442 1984.31 509.474)"/></g><g transform="matrix(-.10956 -.258 -.24142 .10253 2965.92 1117.55)"><path d="M1509.55 1136.24c-97.09-49.97-568.881 357.28-559.092 695.86 8.096 280 264.092 363.04 394.152 380.24 260.6 34.44 498.34-239.55 455.03-516.33-31.09-198.63-136.14-480.53-290.09-559.77Z" style="fill:#f30009"/><clipPath id="f"><path d="M1509.55 1136.24c-97.09-49.97-568.881 357.28-559.092 695.86 8.096 280 264.092 363.04 394.152 380.24 260.6 34.44 498.34-239.55 455.03-516.33-31.09-198.63-136.14-480.53-290.09-559.77Z"/></clipPath><g clip-path="url(#f)"><path d="M1260.96 1064.89s-33.57 57.54-33.57 82.2c0 18.97 15.04 34.38 33.57 34.38s33.57-15.41 33.57-34.38c0-24.66-33.57-82.2-33.57-82.2Z" style="fill:#ffb200" transform="matrix(-.71716 -.11892 .13494 -.74389 2323.4 2978.39)"/><path d="M1260.96 1064.89s-33.57 57.54-33.57 82.2c0 18.97 15.04 34.38 33.57 34.38s33.57-15.41 33.57-34.38c0-24.66-33.57-82.2-33.57-82.2Z" style="fill:#ffb200" transform="matrix(-.71716 -.11892 .13494 -.74389 2211.55 2945.92)"/><path d="M1260.96 1064.89s-33.57 57.54-33.57 82.2c0 18.97 15.04 34.38 33.57 34.38s33.57-15.41 33.57-34.38c0-24.66-33.57-82.2-33.57-82.2Z" style="fill:#ffb200" transform="matrix(-.71716 -.11892 .13494 -.74389 2048.9 2889.54)"/><path d="M1260.96 1064.89s-33.57 57.54-33.57 82.2c0 18.97 15.04 34.38 33.57 34.38s33.57-15.41 33.57-34.38c0-24.66-33.57-82.2-33.57-82.2Z" style="fill:#ffb200" transform="matrix(-.71716 -.11892 .13494 -.74389 1890.57 2864.39)"/><path d="M1260.96 1064.89s-33.57 57.54-33.57 82.2c0 18.97 15.04 34.38 33.57 34.38s33.57-15.41 33.57-34.38c0-24.66-33.57-82.2-33.57-82.2Z" style="fill:#ffb200" transform="matrix(-.71716 -.11892 .13494 -.74389 1770.67 2867.01)"/><path d="M1260.96 1064.89s-33.57 57.54-33.57 82.2c0 18.97 15.04 34.38 33.57 34.38s33.57-15.41 33.57-34.38c0-24.66-33.57-82.2-33.57-82.2Z" style="fill:#ffb200" transform="matrix(-.71716 -.11892 .13494 -.74389 1919.95 2994.25)"/><path d="M1260.96 1064.89s-33.57 57.54-33.57 82.2c0 18.97 15.04 34.38 33.57 34.38s33.57-15.41 33.57-34.38c0-24.66-33.57-82.2-33.57-82.2Z" style="fill:#ffb200" transform="matrix(-.71716 -.11892 .13494 -.74389 1945.12 2717.82)"/><path d="M1260.96 1064.89s-33.57 57.54-33.57 82.2c0 18.97 15.04 34.38 33.57 34.38s33.57-15.41 33.57-34.38c0-24.66-33.57-82.2-33.57-82.2Z" style="fill:#ffb200" transform="matrix(-.71716 -.11892 .13494 -.74389 1816.34 2681.66)"/><path d="M1260.96 1064.89s-33.57 57.54-33.57 82.2c0 18.97 15.04 34.38 33.57 34.38s33.57-15.41 33.57-34.38c0-24.66-33.57-82.2-33.57-82.2Z" style="fill:#ffb200" transform="matrix(-.71716 -.11892 .13494 -.74389 2083.91 2744.66)"/><path d="M1260.96 1064.89s-33.57 57.54-33.57 82.2c0 18.97 15.04 34.38 33.57 34.38s33.57-15.41 33.57-34.38c0-24.66-33.57-82.2-33.57-82.2Z" style="fill:#ffb200" transform="matrix(-.71716 -.11892 .13494 -.74389 2221.66 2788.41)"/><path d="M1260.96 1064.89s-33.57 57.54-33.57 82.2c0 18.97 15.04 34.38 33.57 34.38s33.57-15.41 33.57-34.38c0-24.66-33.57-82.2-33.57-82.2Z" style="fill:#ffb200" transform="matrix(-.71716 -.11892 .13494 -.74389 2363.06 2795.25)"/><path d="M1260.96 1064.89s-33.57 58.07-33.57 82.96c0 18.56 15.04 33.62 33.57 33.62s33.57-15.06 33.57-33.62c0-24.89-33.57-82.96-33.57-82.96Z" style="fill:#ffb200" transform="matrix(-.65435 -.31479 .32302 -.68441 2199.54 2949.6)"/><path d="M1260.96 1064.89s-33.57 57.25-33.57 81.79c0 19.2 15.04 34.79 33.57 34.79s33.57-15.59 33.57-34.79c0-24.54-33.57-81.79-33.57-81.79Z" style="fill:#ffb200" transform="matrix(-.72974 .02295 -.0022 -.75299 2658.3 2410.89)"/><path d="M1260.96 1064.89s-33.57 57.91-33.57 82.73c0 18.68 15.04 33.85 33.57 33.85s33.57-15.17 33.57-33.85c0-24.82-33.57-82.73-33.57-82.73Z" style="fill:#ffb200" transform="matrix(-.6778 -.25979 .27037 -.70712 2141.59 2783.3)"/><path d="M1260.96 1064.89s-33.57 57.5-33.57 82.15c0 19 15.04 34.43 33.57 34.43s33.57-15.43 33.57-34.43c0-24.65-33.57-82.15-33.57-82.15Z" style="fill:#ffb200" transform="matrix(-.7196 -.10475 .12128 -.74602 2208.08 2588.96)"/><path d="M1260.96 1064.89s-33.57 57.5-33.57 82.15c0 19 15.04 34.43 33.57 34.43s33.57-15.43 33.57-34.43c0-24.65-33.57-82.15-33.57-82.15Z" style="fill:#ffb200" transform="matrix(-.7196 -.10475 .12128 -.74602 2152.7 2419.28)"/><path d="M1260.96 1064.89s-33.57 57.5-33.57 82.15c0 19 15.04 34.43 33.57 34.43s33.57-15.43 33.57-34.43c0-24.65-33.57-82.15-33.57-82.15Z" style="fill:#ffb200" transform="matrix(-.7196 -.10475 .12128 -.74602 2019.79 2554.71)"/><path d="M1260.96 1064.89s-33.57 57.5-33.57 82.15c0 19 15.04 34.43 33.57 34.43s33.57-15.43 33.57-34.43c0-24.65-33.57-82.15-33.57-82.15Z" style="fill:#ffb200" transform="matrix(-.7196 -.10475 .12128 -.74602 1909.87 2450.56)"/><path d="M1260.96 1064.89s-33.57 57.5-33.57 82.15c0 19 15.04 34.43 33.57 34.43s33.57-15.43 33.57-34.43c0-24.65-33.57-82.15-33.57-82.15Z" style="fill:#ffb200" transform="matrix(-.7196 -.10475 .12128 -.74602 2436.47 2484.23)"/><path d="M1260.96 1064.89s-33.57 57.5-33.57 82.15c0 19 15.04 34.43 33.57 34.43s33.57-15.43 33.57-34.43c0-24.65-33.57-82.15-33.57-82.15Z" style="fill:#ffb200" transform="matrix(-.7196 -.10475 .12128 -.74602 2423.58 2318.31)"/><path d="M1260.96 1064.89s-33.57 57.5-33.57 82.15c0 19 15.04 34.43 33.57 34.43s33.57-15.43 33.57-34.43c0-24.65-33.57-82.15-33.57-82.15Z" style="fill:#ffb200" transform="matrix(-.7196 -.10475 .12128 -.74602 2301.44 2448.6)"/><path d="M1260.96 1064.89s-33.57 57.5-33.57 82.15c0 19 15.04 34.43 33.57 34.43s33.57-15.43 33.57-34.43c0-24.65-33.57-82.15-33.57-82.15Z" style="fill:#ffb200" transform="matrix(-.7196 -.10475 .12128 -.74602 1900.58 2555.64)"/><path d="M1260.96 1064.89s-33.57 57.5-33.57 82.15c0 19 15.04 34.43 33.57 34.43s33.57-15.43 33.57-34.43c0-24.65-33.57-82.15-33.57-82.15Z" style="fill:#ffb200" transform="matrix(-.7196 -.10475 .12128 -.74602 2087.92 2305.76)"/><path d="M1260.96 1064.89s-33.57 57.5-33.57 82.15c0 19 15.04 34.43 33.57 34.43s33.57-15.43 33.57-34.43c0-24.65-33.57-82.15-33.57-82.15Z" style="fill:#ffb200" transform="matrix(-.7196 -.10475 .12128 -.74602 2319.17 2297.93)"/><path d="M1260.96 1064.89s-33.57 57.5-33.57 82.15c0 19 15.04 34.43 33.57 34.43s33.57-15.43 33.57-34.43c0-24.65-33.57-82.15-33.57-82.15Z" style="fill:#ffb200" transform="matrix(-.7196 -.10475 .12128 -.74602 2245.38 2189.08)"/><path d="M1260.96 1064.89s-33.57 58.07-33.57 82.96c0 18.56 15.04 33.62 33.57 33.62s33.57-15.06 33.57-33.62c0-24.89-33.57-82.96-33.57-82.96Z" style="fill:#ffb200" transform="matrix(-.65435 -.31479 .32302 -.68441 2166.43 3142.27)"/></g></g><g><path d="M967.836 102.77s-20.258 16.154 70.074 49.422c31.28 11.52 100.15 66.462 125.93 112.156 65.79 116.618-67.57 150.312-183.876 153.468-193.624 5.253-176.433-72.337-155.868-155.869C867.37 86.166 967.836 102.77 967.836 102.77Z" style="fill:#fff9e8;stroke:#fee0c6;stroke-width:15.2px;stroke-linejoin:miter" transform="matrix(.82223 0 0 .82223 -349.355 808.629)"/><path d="M943.421 86.622s21.278 51.968 94.489 65.57c64.26 11.938 141.92 105.624 13.69 161.345-244.234 106.131-271.059 9.59-228.352-65.087C908.195 99.916 943.421 86.622 943.421 86.622Z" style="fill:#fff9e8;stroke:#fee0c6;stroke-width:14.39px;stroke-linejoin:miter" transform="matrix(-.84458 .34549 .3113 .76102 1190.686 489.391)"/><path d="M981.671 42.921s1.25 75.11 59.449 109.271c36.5 21.428 30.96 46.979 5.47 70.245-61.134 55.808-209.352 67.598-216.665 10.785C813.758 107.633 981.671 42.921 981.671 42.921Z" style="fill:#fff9e8;stroke:#fee0c6;stroke-width:14.5px;stroke-linejoin:miter" transform="matrix(.9004 0 0 .82223 -413.751 808.629)"/></g><g><path d="M1151.87 134.058s-11.73 0-11.73 73.886c0 3.126 5.26 5.663 11.73 5.663 6.47 0 11.72-2.537 11.72-5.663 0-73.886-11.72-73.886-11.72-73.886Z" style="fill:#ff6200" transform="matrix(.67373 0 0 1.39445 -224.225 386.823)"/></g><g><path d="M1029.28 115.716c0-40.464-83.376-62.007-83.376-21.543v347.219c0 28.505 83.376 30.326 83.376 2.535V115.716Z" style="fill:#fff800" transform="matrix(.85958 0 0 1.39445 -297.099 538.676)"/></g><g><path d="M1018.3 124.308c-30.422-11.63-52.053-41.109-52.053-75.601 0-53.495 80.903-178.318 80.903-178.318s80.9 124.823 80.9 178.318c0 34.492-21.63 63.971-52.05 75.601.41-1.953.62-3.978.62-6.052 0-16.265-13.2-29.47-29.47-29.47s-29.47 13.205-29.47 29.47c0 2.074.21 4.099.62 6.052Z" style="fill:#fffdc6" transform="matrix(.96035 0 0 1.55792 -453.816 380.099)"/><path d="M1017.92 122.02c-18.389-10.274-30.833-29.931-30.833-52.473 0-39.715 60.063-132.385 60.063-132.385s60.06 92.67 60.06 132.385c0 22.542-12.44 42.199-30.83 52.473.16-1.233.24-2.489.24-3.764 0-16.265-13.2-29.47-29.47-29.47s-29.47 13.205-29.47 29.47c0 1.275.08 2.531.24 3.764Z" style="fill:#fffa5d" transform="matrix(.96035 0 0 1.55792 -453.816 380.099)"/><path d="M1017.69 117.408c-7.55-7.547-12.23-17.974-12.23-29.484 0-27.565 41.69-91.882 41.69-91.882s41.69 64.317 41.69 91.882c0 11.51-4.68 21.937-12.23 29.484-.45-15.874-13.48-28.622-29.46-28.622s-29.01 12.748-29.46 28.622Z" style="fill:#fc0" transform="matrix(.96035 0 0 1.55792 -453.816 380.099)"/></g><g><g transform="matrix(-.21776 -.18612 .17416 -.20377 689.518 1729.117)"><path d="M1509.55 1136.24c-97.09-49.97-568.881 357.28-559.092 695.86 8.096 280 264.092 363.04 394.152 380.24 260.6 34.44 498.34-239.55 455.03-516.33-31.09-198.63-136.14-480.53-290.09-559.77Z" style="fill:#f30009"/><clipPath id="g"><path d="M1509.55 1136.24c-97.09-49.97-568.881 357.28-559.092 695.86 8.096 280 264.092 363.04 394.152 380.24 260.6 34.44 498.34-239.55 455.03-516.33-31.09-198.63-136.14-480.53-290.09-559.77Z"/></clipPath><g clip-path="url(#g)"><path d="M1260.96 1064.89s-33.57 57.54-33.57 82.2c0 18.97 15.04 34.38 33.57 34.38s33.57-15.41 33.57-34.38c0-24.66-33.57-82.2-33.57-82.2Z" style="fill:#ffb200" transform="matrix(-.71716 -.11892 .13494 -.74389 2323.4 2978.39)"/><path d="M1260.96 1064.89s-33.57 57.54-33.57 82.2c0 18.97 15.04 34.38 33.57 34.38s33.57-15.41 33.57-34.38c0-24.66-33.57-82.2-33.57-82.2Z" style="fill:#ffb200" transform="matrix(-.71716 -.11892 .13494 -.74389 2211.55 2945.92)"/><path d="M1260.96 1064.89s-33.57 57.54-33.57 82.2c0 18.97 15.04 34.38 33.57 34.38s33.57-15.41 33.57-34.38c0-24.66-33.57-82.2-33.57-82.2Z" style="fill:#ffb200" transform="matrix(-.71716 -.11892 .13494 -.74389 2048.9 2889.54)"/><path d="M1260.96 1064.89s-33.57 57.54-33.57 82.2c0 18.97 15.04 34.38 33.57 34.38s33.57-15.41 33.57-34.38c0-24.66-33.57-82.2-33.57-82.2Z" style="fill:#ffb200" transform="matrix(-.71716 -.11892 .13494 -.74389 1890.57 2864.39)"/><path d="M1260.96 1064.89s-33.57 57.54-33.57 82.2c0 18.97 15.04 34.38 33.57 34.38s33.57-15.41 33.57-34.38c0-24.66-33.57-82.2-33.57-82.2Z" style="fill:#ffb200" transform="matrix(-.71716 -.11892 .13494 -.74389 1770.67 2867.01)"/><path d="M1260.96 1064.89s-33.57 57.54-33.57 82.2c0 18.97 15.04 34.38 33.57 34.38s33.57-15.41 33.57-34.38c0-24.66-33.57-82.2-33.57-82.2Z" style="fill:#ffb200" transform="matrix(-.71716 -.11892 .13494 -.74389 1919.95 2994.25)"/><path d="M1260.96 1064.89s-33.57 57.54-33.57 82.2c0 18.97 15.04 34.38 33.57 34.38s33.57-15.41 33.57-34.38c0-24.66-33.57-82.2-33.57-82.2Z" style="fill:#ffb200" transform="matrix(-.71716 -.11892 .13494 -.74389 1945.12 2717.82)"/><path d="M1260.96 1064.89s-33.57 57.54-33.57 82.2c0 18.97 15.04 34.38 33.57 34.38s33.57-15.41 33.57-34.38c0-24.66-33.57-82.2-33.57-82.2Z" style="fill:#ffb200" transform="matrix(-.71716 -.11892 .13494 -.74389 1816.34 2681.66)"/><path d="M1260.96 1064.89s-33.57 57.54-33.57 82.2c0 18.97 15.04 34.38 33.57 34.38s33.57-15.41 33.57-34.38c0-24.66-33.57-82.2-33.57-82.2Z" style="fill:#ffb200" transform="matrix(-.71716 -.11892 .13494 -.74389 2083.91 2744.66)"/><path d="M1260.96 1064.89s-33.57 57.54-33.57 82.2c0 18.97 15.04 34.38 33.57 34.38s33.57-15.41 33.57-34.38c0-24.66-33.57-82.2-33.57-82.2Z" style="fill:#ffb200" transform="matrix(-.71716 -.11892 .13494 -.74389 2221.66 2788.41)"/><path d="M1260.96 1064.89s-33.57 57.54-33.57 82.2c0 18.97 15.04 34.38 33.57 34.38s33.57-15.41 33.57-34.38c0-24.66-33.57-82.2-33.57-82.2Z" style="fill:#ffb200" transform="matrix(-.71716 -.11892 .13494 -.74389 2363.06 2795.25)"/><path d="M1260.96 1064.89s-33.57 58.07-33.57 82.96c0 18.56 15.04 33.62 33.57 33.62s33.57-15.06 33.57-33.62c0-24.89-33.57-82.96-33.57-82.96Z" style="fill:#ffb200" transform="matrix(-.65435 -.31479 .32302 -.68441 2199.54 2949.6)"/><path d="M1260.96 1064.89s-33.57 57.25-33.57 81.79c0 19.2 15.04 34.79 33.57 34.79s33.57-15.59 33.57-34.79c0-24.54-33.57-81.79-33.57-81.79Z" style="fill:#ffb200" transform="matrix(-.72974 .02295 -.0022 -.75299 2658.3 2410.89)"/><path d="M1260.96 1064.89s-33.57 57.91-33.57 82.73c0 18.68 15.04 33.85 33.57 33.85s33.57-15.17 33.57-33.85c0-24.82-33.57-82.73-33.57-82.73Z" style="fill:#ffb200" transform="matrix(-.6778 -.25979 .27037 -.70712 2141.59 2783.3)"/><path d="M1260.96 1064.89s-33.57 57.5-33.57 82.15c0 19 15.04 34.43 33.57 34.43s33.57-15.43 33.57-34.43c0-24.65-33.57-82.15-33.57-82.15Z" style="fill:#ffb200" transform="matrix(-.7196 -.10475 .12128 -.74602 2208.08 2588.96)"/><path d="M1260.96 1064.89s-33.57 57.5-33.57 82.15c0 19 15.04 34.43 33.57 34.43s33.57-15.43 33.57-34.43c0-24.65-33.57-82.15-33.57-82.15Z" style="fill:#ffb200" transform="matrix(-.7196 -.10475 .12128 -.74602 2152.7 2419.28)"/><path d="M1260.96 1064.89s-33.57 57.5-33.57 82.15c0 19 15.04 34.43 33.57 34.43s33.57-15.43 33.57-34.43c0-24.65-33.57-82.15-33.57-82.15Z" style="fill:#ffb200" transform="matrix(-.7196 -.10475 .12128 -.74602 2019.79 2554.71)"/><path d="M1260.96 1064.89s-33.57 57.5-33.57 82.15c0 19 15.04 34.43 33.57 34.43s33.57-15.43 33.57-34.43c0-24.65-33.57-82.15-33.57-82.15Z" style="fill:#ffb200" transform="matrix(-.7196 -.10475 .12128 -.74602 1909.87 2450.56)"/><path d="M1260.96 1064.89s-33.57 57.5-33.57 82.15c0 19 15.04 34.43 33.57 34.43s33.57-15.43 33.57-34.43c0-24.65-33.57-82.15-33.57-82.15Z" style="fill:#ffb200" transform="matrix(-.7196 -.10475 .12128 -.74602 2436.47 2484.23)"/><path d="M1260.96 1064.89s-33.57 57.5-33.57 82.15c0 19 15.04 34.43 33.57 34.43s33.57-15.43 33.57-34.43c0-24.65-33.57-82.15-33.57-82.15Z" style="fill:#ffb200" transform="matrix(-.7196 -.10475 .12128 -.74602 2423.58 2318.31)"/><path d="M1260.96 1064.89s-33.57 57.5-33.57 82.15c0 19 15.04 34.43 33.57 34.43s33.57-15.43 33.57-34.43c0-24.65-33.57-82.15-33.57-82.15Z" style="fill:#ffb200" transform="matrix(-.7196 -.10475 .12128 -.74602 2301.44 2448.6)"/><path d="M1260.96 1064.89s-33.57 57.5-33.57 82.15c0 19 15.04 34.43 33.57 34.43s33.57-15.43 33.57-34.43c0-24.65-33.57-82.15-33.57-82.15Z" style="fill:#ffb200" transform="matrix(-.7196 -.10475 .12128 -.74602 1900.58 2555.64)"/><path d="M1260.96 1064.89s-33.57 57.5-33.57 82.15c0 19 15.04 34.43 33.57 34.43s33.57-15.43 33.57-34.43c0-24.65-33.57-82.15-33.57-82.15Z" style="fill:#ffb200" transform="matrix(-.7196 -.10475 .12128 -.74602 2087.92 2305.76)"/><path d="M1260.96 1064.89s-33.57 57.5-33.57 82.15c0 19 15.04 34.43 33.57 34.43s33.57-15.43 33.57-34.43c0-24.65-33.57-82.15-33.57-82.15Z" style="fill:#ffb200" transform="matrix(-.7196 -.10475 .12128 -.74602 2319.17 2297.93)"/><path d="M1260.96 1064.89s-33.57 57.5-33.57 82.15c0 19 15.04 34.43 33.57 34.43s33.57-15.43 33.57-34.43c0-24.65-33.57-82.15-33.57-82.15Z" style="fill:#ffb200" transform="matrix(-.7196 -.10475 .12128 -.74602 2245.38 2189.08)"/><path d="M1260.96 1064.89s-33.57 58.07-33.57 82.96c0 18.56 15.04 33.62 33.57 33.62s33.57-15.06 33.57-33.62c0-24.89-33.57-82.96-33.57-82.96Z" style="fill:#ffb200" transform="matrix(-.65435 -.31479 .32302 -.68441 2166.43 3142.27)"/></g></g><path d="M1223.05 647.749s-327.426 76.201-303.675 295.35c7.008 64.661 179.325 96.591 117.855 117.851-45.233 15.65 89.46-399.531 185.82-413.201Z" style="fill:#038f00" transform="matrix(.05267 -.19927 .20063 .05442 524.281 1168.42)"/><path d="M1871.74 837.698s-150.86 15.388-221.86-37.616c-80.6-60.167-109.75 36.82-103.51 86.549 6.24 49.728 54.26 62.929 101.92 79.626 49.47 17.333 210.3-112.168 223.45-128.559Zm-446.96-258.396c-17.21 29.459 142.46 133.63 129.04 234.375-4.55 34.116-66.71 20.438-103.99-9.43s-8.33-60.708-31.1-98.803c-56.59-94.636 6.05-126.142 6.05-126.142Z" style="fill:#038f00" transform="matrix(.24976 .09734 -.09734 .24976 476.662 674.857)"/><path d="M979.123 625.327s42.427 199.064-59.748 317.772c-42.432 49.298 52.808 117.851 117.855 117.851 65.04 0 92.18-58.09 117.85-117.851C1218 796.615 979.123 625.327 979.123 625.327Z" style="fill:#038f00" transform="matrix(-.17501 .10992 -.11206 -.17444 1068.244 1103.667)"/><path d="M889.388 740.364s48.067 53.797 29.987 202.735c-7.839 64.571 52.808 117.851 117.855 117.851 65.04 0 116.23-52.83 117.85-117.851 5.45-219.229-265.692-202.735-265.692-202.735Z" style="fill:#038f00" transform="matrix(.11757 .09322 .12902 -.1607 516.655 1099.162)"/></g><g><path d="M1008.81 78.832s-61.232 40.092 29.1 73.36c31.28 11.52 56.12 65.664 81.9 111.358 65.79 116.618-23.54 151.11-139.846 154.266-193.624 5.253-176.433-72.337-155.868-155.869C867.37 86.166 1008.81 78.832 1008.81 78.832Z" style="fill:#fff9e8;stroke:#ffe1c7;stroke-width:12.64px;stroke-linejoin:miter" transform="matrix(.989 0 0 .989 22.123 873.355)"/><path d="M1008.81 78.832s-44.111 59.758 29.1 73.36c64.26 11.938 141.92 105.624 13.69 161.345-244.234 106.131-271.059 9.59-228.352-65.087C908.195 99.916 1008.81 78.832 1008.81 78.832Z" style="fill:#fff9e8;stroke:#ffe1c7;stroke-width:11.97px;stroke-linejoin:miter" transform="matrix(1.09753 0 0 .98895 -78.353 873.355)"/><path d="M1028.85 67.612s-45.929 50.419 12.27 84.58c36.5 21.428 30.96 46.979 5.47 70.245-61.134 55.808-231.846 99.501-222.494 39.51C853.747 71.742 1028.85 67.612 1028.85 67.612Z" style="fill:#fff9e8;stroke:#ffe1c7;stroke-width:12.64px;stroke-linejoin:miter" transform="matrix(.989 0 0 .989 22.123 873.355)"/></g><g><path d="M1151.87 134.058s-11.73 0-11.73 73.196c0 3.506 5.26 6.353 11.73 6.353 6.47 0 11.72-2.847 11.72-6.353 0-73.196-11.72-73.196-11.72-73.196Z" style="fill:#ff6200" transform="matrix(.75584 0 0 1.39445 281.022 515.251)"/></g><g><path d="M1029.28 115.716c0-17.238-24.32-3.967-41.689-11.007-23.405-9.485-41.687-33.762-41.687-10.536v347.219c0 28.505 83.376 30.326 83.376 2.535V115.716Z" style="fill:#42d2ff" transform="matrix(-.96435 0 0 1.54872 2104.04 595.554)"/></g><g><path d="M1018.3 124.308c-30.422-11.63-52.053-41.109-52.053-75.601 0-53.495 80.903-178.318 80.903-178.318s80.9 124.823 80.9 178.318c0 34.492-21.63 63.971-52.05 75.601.41-1.953.62-3.978.62-6.052 0-16.265-13.2-29.47-29.47-29.47s-29.47 13.205-29.47 29.47c0 2.074.21 4.099.62 6.052Z" style="fill:#fffdc6" transform="matrix(1.0774 0 0 1.55792 23.448 508.527)"/><path d="M1017.92 122.02c-18.389-10.274-30.833-29.931-30.833-52.473 0-39.715 60.063-132.385 60.063-132.385s60.06 92.67 60.06 132.385c0 22.542-12.44 42.199-30.83 52.473.16-1.233.24-2.489.24-3.764 0-16.265-13.2-29.47-29.47-29.47s-29.47 13.205-29.47 29.47c0 1.275.08 2.531.24 3.764Z" style="fill:#fffa5d" transform="matrix(1.0774 0 0 1.55792 23.448 508.527)"/><path d="M1017.69 117.408c-7.55-7.547-12.23-17.974-12.23-29.484 0-27.565 41.69-91.882 41.69-91.882s41.69 64.317 41.69 91.882c0 11.51-4.68 21.937-12.23 29.484-.45-15.874-13.48-28.622-29.46-28.622s-29.01 12.748-29.46 28.622Z" style="fill:#fc0" transform="matrix(1.0774 0 0 1.55792 23.448 508.527)"/></g><g><g transform="matrix(-.22358 -.19109 .17881 -.20921 1302.185 1820.172)"><path d="M1509.55 1136.24c-97.09-49.97-568.881 357.28-559.092 695.86 8.096 280 264.092 363.04 394.152 380.24 260.6 34.44 498.34-239.55 455.03-516.33-31.09-198.63-136.14-480.53-290.09-559.77Z" style="fill:#f30009"/><clipPath id="h"><path d="M1509.55 1136.24c-97.09-49.97-568.881 357.28-559.092 695.86 8.096 280 264.092 363.04 394.152 380.24 260.6 34.44 498.34-239.55 455.03-516.33-31.09-198.63-136.14-480.53-290.09-559.77Z"/></clipPath><g clip-path="url(#h)"><path d="M1260.96 1064.89s-33.57 57.54-33.57 82.2c0 18.97 15.04 34.38 33.57 34.38s33.57-15.41 33.57-34.38c0-24.66-33.57-82.2-33.57-82.2Z" style="fill:#ffb200" transform="matrix(-.71716 -.11892 .13494 -.74389 2323.4 2978.39)"/><path d="M1260.96 1064.89s-33.57 57.54-33.57 82.2c0 18.97 15.04 34.38 33.57 34.38s33.57-15.41 33.57-34.38c0-24.66-33.57-82.2-33.57-82.2Z" style="fill:#ffb200" transform="matrix(-.71716 -.11892 .13494 -.74389 2211.55 2945.92)"/><path d="M1260.96 1064.89s-33.57 57.54-33.57 82.2c0 18.97 15.04 34.38 33.57 34.38s33.57-15.41 33.57-34.38c0-24.66-33.57-82.2-33.57-82.2Z" style="fill:#ffb200" transform="matrix(-.71716 -.11892 .13494 -.74389 2048.9 2889.54)"/><path d="M1260.96 1064.89s-33.57 57.54-33.57 82.2c0 18.97 15.04 34.38 33.57 34.38s33.57-15.41 33.57-34.38c0-24.66-33.57-82.2-33.57-82.2Z" style="fill:#ffb200" transform="matrix(-.71716 -.11892 .13494 -.74389 1890.57 2864.39)"/><path d="M1260.96 1064.89s-33.57 57.54-33.57 82.2c0 18.97 15.04 34.38 33.57 34.38s33.57-15.41 33.57-34.38c0-24.66-33.57-82.2-33.57-82.2Z" style="fill:#ffb200" transform="matrix(-.71716 -.11892 .13494 -.74389 1770.67 2867.01)"/><path d="M1260.96 1064.89s-33.57 57.54-33.57 82.2c0 18.97 15.04 34.38 33.57 34.38s33.57-15.41 33.57-34.38c0-24.66-33.57-82.2-33.57-82.2Z" style="fill:#ffb200" transform="matrix(-.71716 -.11892 .13494 -.74389 1919.95 2994.25)"/><path d="M1260.96 1064.89s-33.57 57.54-33.57 82.2c0 18.97 15.04 34.38 33.57 34.38s33.57-15.41 33.57-34.38c0-24.66-33.57-82.2-33.57-82.2Z" style="fill:#ffb200" transform="matrix(-.71716 -.11892 .13494 -.74389 1945.12 2717.82)"/><path d="M1260.96 1064.89s-33.57 57.54-33.57 82.2c0 18.97 15.04 34.38 33.57 34.38s33.57-15.41 33.57-34.38c0-24.66-33.57-82.2-33.57-82.2Z" style="fill:#ffb200" transform="matrix(-.71716 -.11892 .13494 -.74389 1816.34 2681.66)"/><path d="M1260.96 1064.89s-33.57 57.54-33.57 82.2c0 18.97 15.04 34.38 33.57 34.38s33.57-15.41 33.57-34.38c0-24.66-33.57-82.2-33.57-82.2Z" style="fill:#ffb200" transform="matrix(-.71716 -.11892 .13494 -.74389 2083.91 2744.66)"/><path d="M1260.96 1064.89s-33.57 57.54-33.57 82.2c0 18.97 15.04 34.38 33.57 34.38s33.57-15.41 33.57-34.38c0-24.66-33.57-82.2-33.57-82.2Z" style="fill:#ffb200" transform="matrix(-.71716 -.11892 .13494 -.74389 2221.66 2788.41)"/><path d="M1260.96 1064.89s-33.57 57.54-33.57 82.2c0 18.97 15.04 34.38 33.57 34.38s33.57-15.41 33.57-34.38c0-24.66-33.57-82.2-33.57-82.2Z" style="fill:#ffb200" transform="matrix(-.71716 -.11892 .13494 -.74389 2363.06 2795.25)"/><path d="M1260.96 1064.89s-33.57 58.07-33.57 82.96c0 18.56 15.04 33.62 33.57 33.62s33.57-15.06 33.57-33.62c0-24.89-33.57-82.96-33.57-82.96Z" style="fill:#ffb200" transform="matrix(-.65435 -.31479 .32302 -.68441 2199.54 2949.6)"/><path d="M1260.96 1064.89s-33.57 57.25-33.57 81.79c0 19.2 15.04 34.79 33.57 34.79s33.57-15.59 33.57-34.79c0-24.54-33.57-81.79-33.57-81.79Z" style="fill:#ffb200" transform="matrix(-.72974 .02295 -.0022 -.75299 2658.3 2410.89)"/><path d="M1260.96 1064.89s-33.57 57.91-33.57 82.73c0 18.68 15.04 33.85 33.57 33.85s33.57-15.17 33.57-33.85c0-24.82-33.57-82.73-33.57-82.73Z" style="fill:#ffb200" transform="matrix(-.6778 -.25979 .27037 -.70712 2141.59 2783.3)"/><path d="M1260.96 1064.89s-33.57 57.5-33.57 82.15c0 19 15.04 34.43 33.57 34.43s33.57-15.43 33.57-34.43c0-24.65-33.57-82.15-33.57-82.15Z" style="fill:#ffb200" transform="matrix(-.7196 -.10475 .12128 -.74602 2208.08 2588.96)"/><path d="M1260.96 1064.89s-33.57 57.5-33.57 82.15c0 19 15.04 34.43 33.57 34.43s33.57-15.43 33.57-34.43c0-24.65-33.57-82.15-33.57-82.15Z" style="fill:#ffb200" transform="matrix(-.7196 -.10475 .12128 -.74602 2152.7 2419.28)"/><path d="M1260.96 1064.89s-33.57 57.5-33.57 82.15c0 19 15.04 34.43 33.57 34.43s33.57-15.43 33.57-34.43c0-24.65-33.57-82.15-33.57-82.15Z" style="fill:#ffb200" transform="matrix(-.7196 -.10475 .12128 -.74602 2019.79 2554.71)"/><path d="M1260.96 1064.89s-33.57 57.5-33.57 82.15c0 19 15.04 34.43 33.57 34.43s33.57-15.43 33.57-34.43c0-24.65-33.57-82.15-33.57-82.15Z" style="fill:#ffb200" transform="matrix(-.7196 -.10475 .12128 -.74602 1909.87 2450.56)"/><path d="M1260.96 1064.89s-33.57 57.5-33.57 82.15c0 19 15.04 34.43 33.57 34.43s33.57-15.43 33.57-34.43c0-24.65-33.57-82.15-33.57-82.15Z" style="fill:#ffb200" transform="matrix(-.7196 -.10475 .12128 -.74602 2436.47 2484.23)"/><path d="M1260.96 1064.89s-33.57 57.5-33.57 82.15c0 19 15.04 34.43 33.57 34.43s33.57-15.43 33.57-34.43c0-24.65-33.57-82.15-33.57-82.15Z" style="fill:#ffb200" transform="matrix(-.7196 -.10475 .12128 -.74602 2423.58 2318.31)"/><path d="M1260.96 1064.89s-33.57 57.5-33.57 82.15c0 19 15.04 34.43 33.57 34.43s33.57-15.43 33.57-34.43c0-24.65-33.57-82.15-33.57-82.15Z" style="fill:#ffb200" transform="matrix(-.7196 -.10475 .12128 -.74602 2301.44 2448.6)"/><path d="M1260.96 1064.89s-33.57 57.5-33.57 82.15c0 19 15.04 34.43 33.57 34.43s33.57-15.43 33.57-34.43c0-24.65-33.57-82.15-33.57-82.15Z" style="fill:#ffb200" transform="matrix(-.7196 -.10475 .12128 -.74602 1900.58 2555.64)"/><path d="M1260.96 1064.89s-33.57 57.5-33.57 82.15c0 19 15.04 34.43 33.57 34.43s33.57-15.43 33.57-34.43c0-24.65-33.57-82.15-33.57-82.15Z" style="fill:#ffb200" transform="matrix(-.7196 -.10475 .12128 -.74602 2087.92 2305.76)"/><path d="M1260.96 1064.89s-33.57 57.5-33.57 82.15c0 19 15.04 34.43 33.57 34.43s33.57-15.43 33.57-34.43c0-24.65-33.57-82.15-33.57-82.15Z" style="fill:#ffb200" transform="matrix(-.7196 -.10475 .12128 -.74602 2319.17 2297.93)"/><path d="M1260.96 1064.89s-33.57 57.5-33.57 82.15c0 19 15.04 34.43 33.57 34.43s33.57-15.43 33.57-34.43c0-24.65-33.57-82.15-33.57-82.15Z" style="fill:#ffb200" transform="matrix(-.7196 -.10475 .12128 -.74602 2245.38 2189.08)"/><path d="M1260.96 1064.89s-33.57 58.07-33.57 82.96c0 18.56 15.04 33.62 33.57 33.62s33.57-15.06 33.57-33.62c0-24.89-33.57-82.96-33.57-82.96Z" style="fill:#ffb200" transform="matrix(-.65435 -.31479 .32302 -.68441 2166.43 3142.27)"/></g></g><path d="M1223.05 647.749s-327.426 76.201-303.675 295.35c7.008 64.661 179.325 96.591 117.855 117.851-45.233 15.65 89.46-399.531 185.82-413.201Z" style="fill:#038f00" transform="matrix(.05408 -.2046 .206 .05588 1132.532 1244.49)"/><path d="M1871.74 837.698s-150.86 15.388-221.86-37.616c-80.6-60.167-109.75 36.82-103.51 86.549 6.24 49.728 54.26 62.929 101.92 79.626 49.47 17.333 210.3-112.168 223.45-128.559Zm-446.96-258.396c-17.21 29.459 142.46 133.63 129.04 234.375-4.55 34.116-66.71 20.438-103.99-9.43s-8.33-60.708-31.1-98.803c-56.59-94.636 6.05-126.142 6.05-126.142Z" style="fill:#038f00" transform="matrix(.25643 .09994 -.09994 .25643 1083.64 737.736)"/><path d="M979.123 625.327s42.427 199.064-59.748 317.772c-42.432 49.298 52.808 117.851 117.855 117.851 65.04 0 92.18-58.09 117.85-117.851C1218 796.615 979.123 625.327 979.123 625.327Z" style="fill:#038f00" transform="matrix(-.1797 .11286 -.11506 -.1791 1691.032 1178.006)"/><path d="M889.388 740.364s48.067 53.797 29.987 202.735c-7.839 64.571 52.808 117.851 117.855 117.851 65.04 0 116.23-52.83 117.85-117.851 5.45-219.229-265.692-202.735-265.692-202.735Z" style="fill:#038f00" transform="matrix(.12072 .09571 .13247 -.165 1124.702 1173.38)"/></g><g><g transform="matrix(.22976 -.19637 -.18376 -.215 1911.332 1836.085)"><path d="M1509.55 1136.24c-97.09-49.97-568.881 357.28-559.092 695.86 8.096 280 264.092 363.04 394.152 380.24 260.6 34.44 498.34-239.55 455.03-516.33-31.09-198.63-136.14-480.53-290.09-559.77Z" style="fill:#f51515"/><clipPath id="i"><path d="M1509.55 1136.24c-97.09-49.97-568.881 357.28-559.092 695.86 8.096 280 264.092 363.04 394.152 380.24 260.6 34.44 498.34-239.55 455.03-516.33-31.09-198.63-136.14-480.53-290.09-559.77Z"/></clipPath><g clip-path="url(#i)"><path d="M1260.96 1064.89s-33.57 57.54-33.57 82.2c0 18.97 15.04 34.38 33.57 34.38s33.57-15.41 33.57-34.38c0-24.66-33.57-82.2-33.57-82.2Z" style="fill:#ffb200" transform="matrix(-.71716 -.11892 .13494 -.74389 2323.4 2978.39)"/><path d="M1260.96 1064.89s-33.57 57.54-33.57 82.2c0 18.97 15.04 34.38 33.57 34.38s33.57-15.41 33.57-34.38c0-24.66-33.57-82.2-33.57-82.2Z" style="fill:#ffb200" transform="matrix(-.71716 -.11892 .13494 -.74389 2211.55 2945.92)"/><path d="M1260.96 1064.89s-33.57 57.54-33.57 82.2c0 18.97 15.04 34.38 33.57 34.38s33.57-15.41 33.57-34.38c0-24.66-33.57-82.2-33.57-82.2Z" style="fill:#ffb200" transform="matrix(-.71716 -.11892 .13494 -.74389 2048.9 2889.54)"/><path d="M1260.96 1064.89s-33.57 57.54-33.57 82.2c0 18.97 15.04 34.38 33.57 34.38s33.57-15.41 33.57-34.38c0-24.66-33.57-82.2-33.57-82.2Z" style="fill:#ffb200" transform="matrix(-.71716 -.11892 .13494 -.74389 1890.57 2864.39)"/><path d="M1260.96 1064.89s-33.57 57.54-33.57 82.2c0 18.97 15.04 34.38 33.57 34.38s33.57-15.41 33.57-34.38c0-24.66-33.57-82.2-33.57-82.2Z" style="fill:#ffb200" transform="matrix(-.71716 -.11892 .13494 -.74389 1770.67 2867.01)"/><path d="M1260.96 1064.89s-33.57 57.54-33.57 82.2c0 18.97 15.04 34.38 33.57 34.38s33.57-15.41 33.57-34.38c0-24.66-33.57-82.2-33.57-82.2Z" style="fill:#ffb200" transform="matrix(-.71716 -.11892 .13494 -.74389 1919.95 2994.25)"/><path d="M1260.96 1064.89s-33.57 57.54-33.57 82.2c0 18.97 15.04 34.38 33.57 34.38s33.57-15.41 33.57-34.38c0-24.66-33.57-82.2-33.57-82.2Z" style="fill:#ffb200" transform="matrix(-.71716 -.11892 .13494 -.74389 1945.12 2717.82)"/><path d="M1260.96 1064.89s-33.57 57.54-33.57 82.2c0 18.97 15.04 34.38 33.57 34.38s33.57-15.41 33.57-34.38c0-24.66-33.57-82.2-33.57-82.2Z" style="fill:#ffb200" transform="matrix(-.71716 -.11892 .13494 -.74389 1816.34 2681.66)"/><path d="M1260.96 1064.89s-33.57 57.54-33.57 82.2c0 18.97 15.04 34.38 33.57 34.38s33.57-15.41 33.57-34.38c0-24.66-33.57-82.2-33.57-82.2Z" style="fill:#ffb200" transform="matrix(-.71716 -.11892 .13494 -.74389 2083.91 2744.66)"/><path d="M1260.96 1064.89s-33.57 57.54-33.57 82.2c0 18.97 15.04 34.38 33.57 34.38s33.57-15.41 33.57-34.38c0-24.66-33.57-82.2-33.57-82.2Z" style="fill:#ffb200" transform="matrix(-.71716 -.11892 .13494 -.74389 2221.66 2788.41)"/><path d="M1260.96 1064.89s-33.57 57.54-33.57 82.2c0 18.97 15.04 34.38 33.57 34.38s33.57-15.41 33.57-34.38c0-24.66-33.57-82.2-33.57-82.2Z" style="fill:#ffb200" transform="matrix(-.71716 -.11892 .13494 -.74389 2363.06 2795.25)"/><path d="M1260.96 1064.89s-33.57 58.07-33.57 82.96c0 18.56 15.04 33.62 33.57 33.62s33.57-15.06 33.57-33.62c0-24.89-33.57-82.96-33.57-82.96Z" style="fill:#ffb200" transform="matrix(-.65435 -.31479 .32302 -.68441 2199.54 2949.6)"/><path d="M1260.96 1064.89s-33.57 57.25-33.57 81.79c0 19.2 15.04 34.79 33.57 34.79s33.57-15.59 33.57-34.79c0-24.54-33.57-81.79-33.57-81.79Z" style="fill:#ffb200" transform="matrix(-.72974 .02295 -.0022 -.75299 2658.3 2410.89)"/><path d="M1260.96 1064.89s-33.57 57.91-33.57 82.73c0 18.68 15.04 33.85 33.57 33.85s33.57-15.17 33.57-33.85c0-24.82-33.57-82.73-33.57-82.73Z" style="fill:#ffb200" transform="matrix(-.6778 -.25979 .27037 -.70712 2141.59 2783.3)"/><path d="M1260.96 1064.89s-33.57 57.5-33.57 82.15c0 19 15.04 34.43 33.57 34.43s33.57-15.43 33.57-34.43c0-24.65-33.57-82.15-33.57-82.15Z" style="fill:#ffb200" transform="matrix(-.7196 -.10475 .12128 -.74602 2208.08 2588.96)"/><path d="M1260.96 1064.89s-33.57 57.5-33.57 82.15c0 19 15.04 34.43 33.57 34.43s33.57-15.43 33.57-34.43c0-24.65-33.57-82.15-33.57-82.15Z" style="fill:#ffb200" transform="matrix(-.7196 -.10475 .12128 -.74602 2152.7 2419.28)"/><path d="M1260.96 1064.89s-33.57 57.5-33.57 82.15c0 19 15.04 34.43 33.57 34.43s33.57-15.43 33.57-34.43c0-24.65-33.57-82.15-33.57-82.15Z" style="fill:#ffb200" transform="matrix(-.7196 -.10475 .12128 -.74602 2019.79 2554.71)"/><path d="M1260.96 1064.89s-33.57 57.5-33.57 82.15c0 19 15.04 34.43 33.57 34.43s33.57-15.43 33.57-34.43c0-24.65-33.57-82.15-33.57-82.15Z" style="fill:#ffb200" transform="matrix(-.7196 -.10475 .12128 -.74602 1909.87 2450.56)"/><path d="M1260.96 1064.89s-33.57 57.5-33.57 82.15c0 19 15.04 34.43 33.57 34.43s33.57-15.43 33.57-34.43c0-24.65-33.57-82.15-33.57-82.15Z" style="fill:#ffb200" transform="matrix(-.7196 -.10475 .12128 -.74602 2436.47 2484.23)"/><path d="M1260.96 1064.89s-33.57 57.5-33.57 82.15c0 19 15.04 34.43 33.57 34.43s33.57-15.43 33.57-34.43c0-24.65-33.57-82.15-33.57-82.15Z" style="fill:#ffb200" transform="matrix(-.7196 -.10475 .12128 -.74602 2423.58 2318.31)"/><path d="M1260.96 1064.89s-33.57 57.5-33.57 82.15c0 19 15.04 34.43 33.57 34.43s33.57-15.43 33.57-34.43c0-24.65-33.57-82.15-33.57-82.15Z" style="fill:#ffb200" transform="matrix(-.7196 -.10475 .12128 -.74602 2301.44 2448.6)"/><path d="M1260.96 1064.89s-33.57 57.5-33.57 82.15c0 19 15.04 34.43 33.57 34.43s33.57-15.43 33.57-34.43c0-24.65-33.57-82.15-33.57-82.15Z" style="fill:#ffb200" transform="matrix(-.7196 -.10475 .12128 -.74602 1900.58 2555.64)"/><path d="M1260.96 1064.89s-33.57 57.5-33.57 82.15c0 19 15.04 34.43 33.57 34.43s33.57-15.43 33.57-34.43c0-24.65-33.57-82.15-33.57-82.15Z" style="fill:#ffb200" transform="matrix(-.7196 -.10475 .12128 -.74602 2087.92 2305.76)"/><path d="M1260.96 1064.89s-33.57 57.5-33.57 82.15c0 19 15.04 34.43 33.57 34.43s33.57-15.43 33.57-34.43c0-24.65-33.57-82.15-33.57-82.15Z" style="fill:#ffb200" transform="matrix(-.7196 -.10475 .12128 -.74602 2319.17 2297.93)"/><path d="M1260.96 1064.89s-33.57 57.5-33.57 82.15c0 19 15.04 34.43 33.57 34.43s33.57-15.43 33.57-34.43c0-24.65-33.57-82.15-33.57-82.15Z" style="fill:#ffb200" transform="matrix(-.7196 -.10475 .12128 -.74602 2245.38 2189.08)"/><path d="M1260.96 1064.89s-33.57 58.07-33.57 82.96c0 18.56 15.04 33.62 33.57 33.62s33.57-15.06 33.57-33.62c0-24.89-33.57-82.96-33.57-82.96Z" style="fill:#ffb200" transform="matrix(-.65435 -.31479 .32302 -.68441 2166.43 3142.27)"/></g></g><path d="M1223.05 647.749s-327.426 76.201-303.675 295.35c7.008 64.661 179.325 96.591 117.855 117.851-45.233 15.65 89.46-399.531 185.82-413.201Z" style="fill:#038f00" transform="matrix(-.05558 -.21026 -.2117 .05742 2085.676 1244.485)"/><path d="M1871.74 837.698s-150.86 15.388-221.86-37.616c-80.6-60.167-109.75 36.82-103.51 86.549 6.24 49.728 54.26 62.929 101.92 79.626 49.47 17.333 210.3-112.168 223.45-128.559Zm-446.96-258.396c-17.21 29.459 142.46 133.63 129.04 234.375-4.55 34.116-66.71 20.438-103.99-9.43s-8.33-60.708-31.1-98.803c-56.59-94.636 6.05-126.142 6.05-126.142Z" style="fill:#038f00" transform="matrix(-.26352 .1027 .1027 .26352 2135.92 723.717)"/></g><g><path d="M948.405 109.285s-.827 9.639 89.505 42.907c31.28 11.52 56.12 65.664 81.9 111.358 65.79 116.618-23.54 151.11-139.846 154.266-193.624 5.253-176.433-72.337-155.868-155.869C867.37 86.166 948.405 109.285 948.405 109.285Z" style="fill:#fff9e8;stroke:#fee0c6;stroke-width:16.34px;stroke-linejoin:miter" transform="matrix(-.76499 0 0 .76499 3396.24 825.307)"/><path d="M928.288 109.407s36.411 29.183 109.622 42.785c64.26 11.938 96.57 136.105 13.69 161.345-183.825 55.982-271.059 9.59-228.352-65.087 84.947-148.534 105.04-139.043 105.04-139.043Z" style="fill:#fff9e8;stroke:#fee0c6;stroke-width:15.47px;stroke-linejoin:miter" transform="matrix(-.84898 0 0 .76499 3473.962 825.307)"/><path d="M950.652 51.654s32.269 66.377 90.468 100.538c36.5 21.428 30.96 46.979 5.47 70.245-61.134 55.808-229.635 58.042-216.111-1.148C855.343 112.472 950.652 51.654 950.652 51.654Z" style="fill:#fff9e8;stroke:#fee0c6;stroke-width:16.34px;stroke-linejoin:miter" transform="matrix(-.76499 0 0 .76499 3396.24 825.307)"/></g><g><g transform="matrix(.19918 -.17266 -.16177 -.19193 2468.984 1680.334)"><path d="M1509.55 1136.24c-97.09-49.97-568.881 357.28-559.092 695.86 8.096 280 264.092 363.04 394.152 380.24 260.6 34.44 498.34-239.55 455.03-516.33-31.09-198.63-136.14-480.53-290.09-559.77Z" style="fill:#f30009"/><clipPath id="j"><path d="M1509.55 1136.24c-97.09-49.97-568.881 357.28-559.092 695.86 8.096 280 264.092 363.04 394.152 380.24 260.6 34.44 498.34-239.55 455.03-516.33-31.09-198.63-136.14-480.53-290.09-559.77Z"/></clipPath><g clip-path="url(#j)"><path d="M1260.96 1064.89s-33.57 57.83-33.57 82.62c0 18.74 15.04 33.96 33.57 33.96s33.57-15.22 33.57-33.96c0-24.79-33.57-82.62-33.57-82.62Z" style="fill:#ffb200" transform="matrix(-.71716 -.11892 .13494 -.74389 2323.4 2978.39)"/><path d="M1260.96 1064.89s-33.57 57.83-33.57 82.62c0 18.74 15.04 33.96 33.57 33.96s33.57-15.22 33.57-33.96c0-24.79-33.57-82.62-33.57-82.62Z" style="fill:#ffb200" transform="matrix(-.71716 -.11892 .13494 -.74389 2211.55 2945.92)"/><path d="M1260.96 1064.89s-33.57 57.83-33.57 82.62c0 18.74 15.04 33.96 33.57 33.96s33.57-15.22 33.57-33.96c0-24.79-33.57-82.62-33.57-82.62Z" style="fill:#ffb200" transform="matrix(-.71716 -.11892 .13494 -.74389 2048.9 2889.54)"/><path d="M1260.96 1064.89s-33.57 57.83-33.57 82.62c0 18.74 15.04 33.96 33.57 33.96s33.57-15.22 33.57-33.96c0-24.79-33.57-82.62-33.57-82.62Z" style="fill:#ffb200" transform="matrix(-.71716 -.11892 .13494 -.74389 1890.57 2864.39)"/><path d="M1260.96 1064.89s-33.57 57.83-33.57 82.62c0 18.74 15.04 33.96 33.57 33.96s33.57-15.22 33.57-33.96c0-24.79-33.57-82.62-33.57-82.62Z" style="fill:#ffb200" transform="matrix(-.71716 -.11892 .13494 -.74389 1770.67 2867.01)"/><path d="M1260.96 1064.89s-33.57 57.83-33.57 82.62c0 18.74 15.04 33.96 33.57 33.96s33.57-15.22 33.57-33.96c0-24.79-33.57-82.62-33.57-82.62Z" style="fill:#ffb200" transform="matrix(-.71716 -.11892 .13494 -.74389 1919.95 2994.25)"/><path d="M1260.96 1064.89s-33.57 57.83-33.57 82.62c0 18.74 15.04 33.96 33.57 33.96s33.57-15.22 33.57-33.96c0-24.79-33.57-82.62-33.57-82.62Z" style="fill:#ffb200" transform="matrix(-.71716 -.11892 .13494 -.74389 1945.12 2717.82)"/><path d="M1260.96 1064.89s-33.57 57.83-33.57 82.62c0 18.74 15.04 33.96 33.57 33.96s33.57-15.22 33.57-33.96c0-24.79-33.57-82.62-33.57-82.62Z" style="fill:#ffb200" transform="matrix(-.71716 -.11892 .13494 -.74389 1816.34 2681.66)"/><path d="M1260.96 1064.89s-33.57 57.83-33.57 82.62c0 18.74 15.04 33.96 33.57 33.96s33.57-15.22 33.57-33.96c0-24.79-33.57-82.62-33.57-82.62Z" style="fill:#ffb200" transform="matrix(-.71716 -.11892 .13494 -.74389 2083.91 2744.66)"/><path d="M1260.96 1064.89s-33.57 57.83-33.57 82.62c0 18.74 15.04 33.96 33.57 33.96s33.57-15.22 33.57-33.96c0-24.79-33.57-82.62-33.57-82.62Z" style="fill:#ffb200" transform="matrix(-.71716 -.11892 .13494 -.74389 2221.66 2788.41)"/><path d="M1260.96 1064.89s-33.57 57.83-33.57 82.62c0 18.74 15.04 33.96 33.57 33.96s33.57-15.22 33.57-33.96c0-24.79-33.57-82.62-33.57-82.62Z" style="fill:#ffb200" transform="matrix(-.71716 -.11892 .13494 -.74389 2363.06 2795.25)"/><path d="M1260.96 1064.89s-33.57 58.1-33.57 82.99c0 18.54 15.04 33.59 33.57 33.59s33.57-15.05 33.57-33.59c0-24.89-33.57-82.99-33.57-82.99Z" style="fill:#ffb200" transform="matrix(-.65435 -.31479 .32302 -.68441 2199.54 2949.6)"/><path d="M1260.96 1064.89s-33.57 57.69-33.57 82.41c0 18.86 15.04 34.17 33.57 34.17s33.57-15.31 33.57-34.17c0-24.72-33.57-82.41-33.57-82.41Z" style="fill:#ffb200" transform="matrix(-.72974 .02295 -.0022 -.75299 2658.3 2410.89)"/><path d="M1260.96 1064.89s-33.57 58.01-33.57 82.88c0 18.6 15.04 33.7 33.57 33.7s33.57-15.1 33.57-33.7c0-24.87-33.57-82.88-33.57-82.88Z" style="fill:#ffb200" transform="matrix(-.6778 -.25979 .27037 -.70712 2141.59 2783.3)"/><path d="M1260.96 1064.89s-33.57 57.81-33.57 82.59c0 18.76 15.04 33.99 33.57 33.99s33.57-15.23 33.57-33.99c0-24.78-33.57-82.59-33.57-82.59Z" style="fill:#ffb200" transform="matrix(-.7196 -.10475 .12128 -.74602 2208.08 2588.96)"/><path d="M1260.96 1064.89s-33.57 57.81-33.57 82.59c0 18.76 15.04 33.99 33.57 33.99s33.57-15.23 33.57-33.99c0-24.78-33.57-82.59-33.57-82.59Z" style="fill:#ffb200" transform="matrix(-.7196 -.10475 .12128 -.74602 2152.7 2419.28)"/><path d="M1260.96 1064.89s-33.57 57.81-33.57 82.59c0 18.76 15.04 33.99 33.57 33.99s33.57-15.23 33.57-33.99c0-24.78-33.57-82.59-33.57-82.59Z" style="fill:#ffb200" transform="matrix(-.7196 -.10475 .12128 -.74602 2019.79 2554.71)"/><path d="M1260.96 1064.89s-33.57 57.81-33.57 82.59c0 18.76 15.04 33.99 33.57 33.99s33.57-15.23 33.57-33.99c0-24.78-33.57-82.59-33.57-82.59Z" style="fill:#ffb200" transform="matrix(-.7196 -.10475 .12128 -.74602 1909.87 2450.56)"/><path d="M1260.96 1064.89s-33.57 57.81-33.57 82.59c0 18.76 15.04 33.99 33.57 33.99s33.57-15.23 33.57-33.99c0-24.78-33.57-82.59-33.57-82.59Z" style="fill:#ffb200" transform="matrix(-.7196 -.10475 .12128 -.74602 2436.47 2484.23)"/><path d="M1260.96 1064.89s-33.57 57.81-33.57 82.59c0 18.76 15.04 33.99 33.57 33.99s33.57-15.23 33.57-33.99c0-24.78-33.57-82.59-33.57-82.59Z" style="fill:#ffb200" transform="matrix(-.7196 -.10475 .12128 -.74602 2423.58 2318.31)"/><path d="M1260.96 1064.89s-33.57 57.81-33.57 82.59c0 18.76 15.04 33.99 33.57 33.99s33.57-15.23 33.57-33.99c0-24.78-33.57-82.59-33.57-82.59Z" style="fill:#ffb200" transform="matrix(-.7196 -.10475 .12128 -.74602 2301.44 2448.6)"/><path d="M1260.96 1064.89s-33.57 57.81-33.57 82.59c0 18.76 15.04 33.99 33.57 33.99s33.57-15.23 33.57-33.99c0-24.78-33.57-82.59-33.57-82.59Z" style="fill:#ffb200" transform="matrix(-.7196 -.10475 .12128 -.74602 1900.58 2555.64)"/><path d="M1260.96 1064.89s-33.57 57.81-33.57 82.59c0 18.76 15.04 33.99 33.57 33.99s33.57-15.23 33.57-33.99c0-24.78-33.57-82.59-33.57-82.59Z" style="fill:#ffb200" transform="matrix(-.7196 -.10475 .12128 -.74602 2087.92 2305.76)"/><path d="M1260.96 1064.89s-33.57 57.81-33.57 82.59c0 18.76 15.04 33.99 33.57 33.99s33.57-15.23 33.57-33.99c0-24.78-33.57-82.59-33.57-82.59Z" style="fill:#ffb200" transform="matrix(-.7196 -.10475 .12128 -.74602 2319.17 2297.93)"/><path d="M1260.96 1064.89s-33.57 57.81-33.57 82.59c0 18.76 15.04 33.99 33.57 33.99s33.57-15.23 33.57-33.99c0-24.78-33.57-82.59-33.57-82.59Z" style="fill:#ffb200" transform="matrix(-.7196 -.10475 .12128 -.74602 2245.38 2189.08)"/><path d="M1260.96 1064.89s-33.57 58.1-33.57 82.99c0 18.54 15.04 33.59 33.57 33.59s33.57-15.05 33.57-33.59c0-24.89-33.57-82.99-33.57-82.99Z" style="fill:#ffb200" transform="matrix(-.65435 -.31479 .32302 -.68441 2166.43 3142.27)"/></g></g><path d="M1223.05 647.749s-327.426 76.201-303.675 295.35c7.008 64.661 179.325 96.591 117.855 117.851-45.233 15.65 89.46-399.531 185.82-413.201Z" style="fill:#038f00" transform="matrix(-.0499 -.18688 -.18434 .04953 2617.18 1156.72)"/><path d="M1871.74 837.698s-150.86 15.388-221.86-37.616c-80.6-60.167-109.75 36.82-103.51 86.549 6.24 49.728 54.26 62.929 101.92 79.626 49.47 17.333 210.3-112.168 223.45-128.559Zm-446.96-258.396c-17.21 29.459 142.46 133.63 129.04 234.375-4.55 34.116-66.71 20.438-103.99-9.43s-8.33-60.708-31.1-98.803c-56.59-94.636 6.05-126.142 6.05-126.142Z" style="fill:#038f00" transform="matrix(-.22926 .08935 .09137 .23444 2657.56 695.112)"/><path d="M979.123 625.327s42.427 199.064-59.748 317.772c-42.432 49.298 52.808 117.851 117.855 117.851 65.04 0 92.18-58.09 117.85-117.851C1218 796.615 979.123 625.327 979.123 625.327Z" style="fill:#038f00" transform="matrix(.1619 .1041 .10195 -.16248 2115.916 1092.3)"/><path d="M889.388 740.364s48.067 53.797 29.987 202.735c-7.839 64.571 52.808 117.851 117.855 117.851 65.04 0 116.23-52.83 117.85-117.851 5.45-219.229-265.692-202.735-265.692-202.735Z" style="fill:#038f00" transform="matrix(-.1076 .08643 -.11991 -.15132 2623.716 1091.952)"/><path d="M1151.87 134.058s-11.73 0-11.73 73.196c0 3.506 5.26 6.353 11.73 6.353 6.47 0 11.72-2.847 11.72-6.353 0-73.196-11.72-73.196-11.72-73.196Z" style="fill:#ff6200" transform="matrix(.75584 0 0 1.39445 1218.703 488.198)"/></g><g><path d="M1023.16 185.754s-75.582-66.83 14.75-33.562c31.28 11.52 100.15 66.462 125.93 112.156 65.79 116.618-67.57 150.312-183.876 153.468-193.624 5.253-176.433-72.337-155.868-155.869 43.274-175.781 199.064-76.193 199.064-76.193Z" style="fill:#fff9e8;stroke:#fee0c6;stroke-width:13.1px;stroke-linejoin:miter" transform="matrix(.9539 0 0 .9539 696.046 906.011)"/><path d="M929.796 164.868s34.903-26.278 108.114-12.676c64.26 11.938 141.92 105.624 13.69 161.345-244.234 106.131-271.059 9.59-228.352-65.087 84.947-148.534 106.548-83.582 106.548-83.582Z" style="fill:#fff9e8;stroke:#fee0c6;stroke-width:12.41px;stroke-linejoin:miter" transform="matrix(-.97983 .40081 .36116 .88288 2482.695 535.655)"/><path d="M961.269 42.921s12.909 53.832 70.131 90.12c35.84 22.73 15.5 75.258-18.81 97.453-53.78 34.782-187.122 59.961-182.665 2.728 6.02-77.297 101.756-131.472 131.344-190.301Z" style="fill:#fff9e8;stroke:#fee0c6;stroke-width:12.5px;stroke-linejoin:miter" transform="matrix(1.04459 0 0 .9539 621.338 906.011)"/></g><g><path d="M1008.81 78.832s-61.232 40.092 29.1 73.36c31.28 11.52 56.12 65.664 81.9 111.358 65.79 116.618-23.54 151.11-139.846 154.266-193.624 5.253-176.433-72.337-155.868-155.869C867.37 86.166 1008.81 78.832 1008.81 78.832Z" style="fill:#fff9e8;stroke:#fee0c6;stroke-width:13.84px;stroke-linejoin:miter" transform="matrix(.90323 0 0 .90323 1399.94 906.538)"/><path d="M1008.81 78.832s-44.111 59.758 29.1 73.36c64.26 11.938 141.92 105.624 13.69 161.345-244.234 106.131-271.059 9.59-228.352-65.087C908.195 99.916 1008.81 78.832 1008.81 78.832Z" style="fill:#fff9e8;stroke:#fee0c6;stroke-width:13.1px;stroke-linejoin:miter" transform="matrix(1.0024 0 0 .90323 1308.173 906.538)"/><path d="M1000.91 67.612s-35.635 69.536 40.21 84.58c41.52 8.235 30.96 46.979 5.47 70.245-61.134 55.808-235.228 98.875-222.494 39.51C853.747 123.71 956.792 76.917 1000.91 67.612Z" style="fill:#fff9e8;stroke:#fee0c6;stroke-width:13.84px;stroke-linejoin:miter" transform="matrix(.90323 0 0 .90323 1399.94 906.538)"/></g><g><path d="M1029.28 115.716c0-17.238-24.32-3.967-41.689-11.007-23.405-9.485-41.687-33.762-41.687-10.536v347.219c0 28.505 83.376 30.326 83.376 2.535V115.716Z" style="fill:#ff45af" transform="matrix(-.96435 0 0 1.54872 3041.72 568.501)"/></g><g><path d="M1018.3 124.308c-30.422-11.63-52.053-41.109-52.053-75.601 0-53.495 80.903-178.318 80.903-178.318s80.9 124.823 80.9 178.318c0 34.492-21.63 63.971-52.05 75.601.41-1.953.62-3.978.62-6.052 0-16.265-13.2-29.47-29.47-29.47s-29.47 13.205-29.47 29.47c0 2.074.21 4.099.62 6.052Z" style="fill:#fffdc6" transform="matrix(1.0774 0 0 1.55792 961.128 481.474)"/><path d="M1017.92 122.02c-18.389-10.274-30.833-29.931-30.833-52.473 0-39.715 60.063-132.385 60.063-132.385s60.06 92.67 60.06 132.385c0 22.542-12.44 42.199-30.83 52.473.16-1.233.24-2.489.24-3.764 0-16.265-13.2-29.47-29.47-29.47s-29.47 13.205-29.47 29.47c0 1.275.08 2.531.24 3.764Z" style="fill:#fffa5d" transform="matrix(1.0774 0 0 1.55792 961.128 481.474)"/><path d="M1017.69 117.408c-7.55-7.547-12.23-17.974-12.23-29.484 0-27.565 41.69-91.882 41.69-91.882s41.69 64.317 41.69 91.882c0 11.51-4.68 21.937-12.23 29.484-.45-15.874-13.48-28.622-29.46-28.622s-29.01 12.748-29.46 28.622Z" style="fill:#fc0" transform="matrix(1.0774 0 0 1.55792 961.128 481.474)"/></g></svg>